<svg width="128" height="32" viewBox="0 0 128 32" fill="none" xmlns="http://www.w3.org/2000/svg">
<path d="M33.9831 5.01285H4.38867V26.625H33.9831V5.01285Z" fill="#21BDBC"/>
<path d="M32.8393 25.7979V5.84936C32.8393 4.97977 32.1351 4.27559 31.2655 4.27559H4.80918C3.93959 4.27559 3.23541 4.97977 3.23541 5.84936V25.7979H1V27.8916H35.0747V25.7979H32.8393ZM20.5469 26.2044H15.5231V25.3915H20.5469V26.2044ZM31.1001 24.3282H4.9746V6.01477H31.1001V24.3282Z" fill="black"/>
<path d="M11.3878 7.5649C10.5088 7.71613 9.62976 7.79648 8.74599 7.85319C8.30647 7.88627 7.86695 7.89572 7.42743 7.91463C6.98791 7.92881 6.54839 7.92881 6.10887 7.93353L6.4775 7.5649C6.47277 8.00442 6.46804 8.44394 6.45859 8.88346C6.43969 9.32299 6.43024 9.76251 6.39715 10.202C6.34517 11.0811 6.26482 11.9601 6.10887 12.8439C5.95763 11.9648 5.87729 11.0858 5.82058 10.202C5.78749 9.76251 5.77804 9.32299 5.75914 8.88346C5.74969 8.44394 5.74496 8.00442 5.74023 7.5649V7.19154L6.10887 7.19627C6.54839 7.20572 6.98791 7.20572 7.42743 7.21517C7.86695 7.23408 8.30647 7.24353 8.74599 7.27661C9.62504 7.3286 10.5041 7.40894 11.3878 7.5649Z" fill="black"/>
<path d="M36.5494 27.6978C32.9434 27.2394 29.2807 27.2394 25.6748 27.6978C22.2767 28.0948 18.184 26.7904 17.3758 23.8225C16.3928 20.2023 16.2699 18.1229 16.2936 14.0207C16.7 7.14901 23.5811 2.7538 29.9565 2.60729C30.8828 2.59784 31.346 2.59784 32.2723 2.60729C38.6477 2.7538 45.5288 7.14901 45.9353 14.0207C45.9589 18.1229 45.836 20.207 44.853 23.8225C44.0449 26.7904 39.9521 28.0948 36.5541 27.6978H36.5494Z" fill="#FFF9BB"/>
<path d="M37.7629 28.3642C37.3281 28.3642 36.898 28.3406 36.4774 28.2886C32.9234 27.8396 29.2844 27.8396 25.7446 28.2886C25.3192 28.3358 24.8892 28.3642 24.4544 28.3642C21.2359 28.3642 17.6158 27.0078 16.7935 23.9784C15.7632 20.1976 15.6687 18.0378 15.6876 14.0159C16.1318 6.68586 23.2823 2.16305 29.9413 2.00709C30.8865 1.99764 31.3449 1.99764 32.276 2.00709C38.9491 2.16305 46.0949 6.68114 46.5297 13.9829C46.5533 18.0425 46.4541 20.1976 45.4285 23.9784C44.6062 27.0078 40.986 28.3642 37.7676 28.3642H37.7629ZM31.1086 26.7573C32.9471 26.7573 34.7997 26.8755 36.6239 27.1023C36.9925 27.1449 37.3753 27.1685 37.7629 27.1685C40.4378 27.1685 43.6137 26.0721 44.2706 23.6665C45.2584 20.0275 45.3529 17.9338 45.334 14.0207C44.9465 7.5271 38.2449 3.33983 32.2571 3.20278C31.3544 3.19332 30.8818 3.19332 29.9602 3.20278C23.9818 3.33983 17.2755 7.5271 16.888 14.0538C16.8691 17.9338 16.9589 20.0275 17.9513 23.6665C18.6083 26.0721 21.7842 27.1685 24.4591 27.1685C24.8466 27.1685 25.2294 27.1449 25.6028 27.1023C27.4176 26.8708 29.2702 26.7573 31.1086 26.7573Z" fill="black"/>
<path d="M26.3375 18.1417C26.3186 20.8687 24.1635 23.0096 21.3515 23.4207C18.5395 23.8319 15.9119 22.0313 16.0064 18.9972C16.1009 15.963 18.6813 13.2976 21.4508 13.1889C24.2202 13.0802 26.3564 15.4148 26.3375 18.1417Z" fill="#BEE7FB"/>
<path d="M21.3863 23.5767C18.5082 23.9926 15.7907 21.9698 15.8852 19.0113C15.9797 16.0528 18.6169 13.4346 21.4478 13.3212C24.2786 13.2078 26.4763 15.481 26.4573 18.1323C26.4479 19.4603 26.2589 20.8876 25.3467 21.7808C24.4346 22.674 22.823 23.364 21.3863 23.572V23.5767ZM21.3816 14.6917C19.5432 14.7815 17.8134 16.705 17.7614 18.7939C17.7047 20.8828 19.425 22.3054 21.2918 22.0691C23.1586 21.8328 24.6615 20.1645 24.6804 18.2221C24.6993 16.2797 23.2247 14.6019 21.3816 14.6917Z" fill="#FFF9BB"/>
<path d="M21.3485 23.3026C18.4704 23.7185 15.7907 21.9698 15.8852 19.0113C15.9798 16.0528 18.6169 13.4346 21.4478 13.3212C24.2787 13.2078 26.4763 15.481 26.4574 18.1323M21.3816 14.687C19.5432 14.7768 17.8135 16.7003 17.7615 18.7892C17.7048 20.8781 19.425 22.3007 21.2918 22.0644C23.1586 21.8281 24.6615 20.1598 24.6804 18.2174C24.6993 16.275 23.2248 14.5972 21.3816 14.687Z" fill="#FFF9BB"/>
<path d="M21.3471 23.3026C21.3471 23.3026 21.2431 23.3215 21.0493 23.3546C20.8556 23.3924 20.5673 23.4254 20.1939 23.4443C19.83 23.4443 19.3669 23.4444 18.8848 23.3215C18.398 23.2128 17.8545 23.0332 17.363 22.7118C16.8668 22.3999 16.3989 21.9746 16.0586 21.4263C15.7136 20.8828 15.4773 20.2259 15.4301 19.4981C15.4301 19.3091 15.397 19.1437 15.4206 18.931C15.4348 18.7467 15.4301 18.586 15.4679 18.3828C15.5246 17.9763 15.6238 17.5841 15.7751 17.1918C16.0728 16.4073 16.5454 15.6322 17.1598 14.9611C17.7789 14.2947 18.5493 13.7371 19.3905 13.3826C20.2175 13.0187 21.1438 12.8864 21.9331 12.9431C22.7932 12.9904 23.5163 13.2597 24.1212 13.6095C24.7215 13.9592 25.1941 14.4034 25.5296 14.8477C25.8699 15.2967 26.092 15.7409 26.2385 16.1426C26.3047 16.3458 26.3614 16.5349 26.3992 16.7145C26.4276 16.8941 26.4606 17.0548 26.4748 17.206C26.4984 17.5037 26.4984 17.7353 26.4748 17.8913C26.4654 18.0472 26.4606 18.1323 26.4606 18.1323C26.4606 18.1323 26.4465 18.0519 26.4228 17.896C26.4086 17.8204 26.3992 17.7258 26.3756 17.6172C26.3472 17.5085 26.3141 17.3856 26.281 17.2438C26.2432 17.102 26.1818 16.9555 26.1251 16.7901C26.0542 16.6294 25.9786 16.4545 25.8841 16.275C25.6856 15.9158 25.4162 15.5282 25.0665 15.1549C24.712 14.7815 24.2489 14.4365 23.7054 14.1671C23.1666 13.8978 22.5049 13.7323 21.848 13.7182C21.1249 13.6993 20.4302 13.8552 19.7449 14.153C19.0597 14.446 18.4358 14.9186 17.9254 15.4763C17.4056 16.0292 16.9991 16.6767 16.7392 17.343C16.6116 17.6786 16.5171 18.0141 16.4509 18.3308C16.4131 18.4867 16.4036 18.6805 16.38 18.8506C16.3564 18.9972 16.3706 19.172 16.3658 19.328C16.3847 19.966 16.5265 20.5567 16.7864 21.0624C17.0464 21.5681 17.3961 21.9887 17.7978 22.3148C18.1948 22.6456 18.6485 22.863 19.0738 23.019C19.4992 23.1797 19.9056 23.2411 20.2459 23.2837C20.5862 23.312 20.865 23.3309 21.0635 23.312C21.2573 23.3073 21.3612 23.3026 21.3612 23.3026H21.3471Z" fill="black"/>
<path d="M21.3811 14.6917C21.3811 14.6917 21.2866 14.7012 21.107 14.7248C20.9274 14.7532 20.6675 14.8146 20.3509 14.9422C20.039 15.0745 19.6751 15.2919 19.3395 15.6133C19.004 15.93 18.6731 16.3364 18.4416 16.8185C18.2005 17.2958 18.0446 17.8393 18.0209 18.3969C18.0209 18.534 18.0209 18.6805 18.0304 18.8081C18.0493 18.9499 18.0493 19.1106 18.0871 19.2335C18.1391 19.4981 18.2336 19.7675 18.3518 20.0227C18.4746 20.2732 18.6306 20.5189 18.8338 20.7269C19.0229 20.9443 19.2497 21.1333 19.5096 21.2846C19.7648 21.4358 20.0531 21.5539 20.3509 21.6201C20.4265 21.6437 20.5021 21.6532 20.5777 21.6626C20.6533 21.6721 20.729 21.6863 20.8093 21.6815C20.8896 21.6815 20.9653 21.691 21.0409 21.6815C21.0881 21.6815 21.1118 21.6768 21.159 21.6721C21.1827 21.6721 21.1921 21.6721 21.2157 21.6721C21.2252 21.6721 21.2346 21.6721 21.2441 21.6721C21.2488 21.6721 21.2535 21.6721 21.2583 21.6721C21.2583 21.6721 21.2583 21.6721 21.2677 21.6721C21.2535 21.6721 21.3055 21.6674 21.2394 21.6721C21.3575 21.6532 21.4142 21.6437 21.5277 21.6248C21.6269 21.6107 21.6694 21.587 21.7451 21.5681C21.8112 21.5539 21.8868 21.5256 21.9625 21.4972C22.0381 21.4689 22.1137 21.4452 22.1846 21.4074C22.4729 21.2751 22.7422 21.0955 22.988 20.897C23.2338 20.6985 23.4464 20.4717 23.626 20.2259C23.8151 19.9896 23.9616 19.7344 24.0844 19.4745C24.3207 18.9499 24.4436 18.4206 24.4436 17.8865C24.4436 17.3809 24.3255 16.8799 24.1222 16.4545C23.9285 16.0245 23.6402 15.67 23.333 15.4006C23.0258 15.1265 22.6903 14.9517 22.3878 14.8477C22.0853 14.7532 21.8301 14.7154 21.6505 14.7059C21.4709 14.7059 21.3764 14.7012 21.3764 14.7012L21.3811 14.6917ZM21.3811 14.6917C21.3811 14.6917 21.4757 14.6917 21.6553 14.6917C21.8348 14.6965 22.0901 14.7295 22.402 14.8193C22.7092 14.9139 23.0494 15.0887 23.3944 15.3392C23.7347 15.5944 24.0514 15.9441 24.3207 16.36C24.5854 16.7854 24.7886 17.2769 24.8879 17.8393C24.9777 18.3733 24.954 18.9877 24.7697 19.5926C24.5807 20.1976 24.2309 20.812 23.6544 21.346C23.3755 21.6154 23.0305 21.8611 22.6288 22.0549C22.5343 22.1069 22.4256 22.1494 22.3216 22.192C22.2177 22.2345 22.1137 22.277 21.9861 22.3101C21.8727 22.3432 21.7309 22.3857 21.6364 22.4046C21.5229 22.4283 21.4615 22.4377 21.3481 22.4613C21.2772 22.4708 21.3197 22.4613 21.3008 22.4661C21.3008 22.4661 21.2961 22.4661 21.2914 22.4661C21.2819 22.4661 21.2772 22.4661 21.2677 22.4661C21.2488 22.4661 21.2394 22.4661 21.2252 22.4661C21.1921 22.4661 21.1732 22.4661 21.1401 22.4708C21.0692 22.4755 21.0361 22.4802 20.9653 22.485C20.8471 22.4944 20.7337 22.485 20.6203 22.485C20.5068 22.485 20.3934 22.4661 20.2847 22.4519C20.176 22.4377 20.0626 22.4235 19.9633 22.3952C19.7507 22.3526 19.5569 22.277 19.3679 22.2061C19.193 22.1163 19.0134 22.0313 18.8622 21.9178C18.2336 21.4972 17.8461 20.9065 17.6476 20.2921C17.5483 19.9802 17.5011 19.6683 17.4869 19.3374C17.4727 19.172 17.4963 19.0302 17.5011 18.879C17.5153 18.7089 17.5436 18.5624 17.5672 18.4064C17.6948 17.7967 17.9406 17.2296 18.2478 16.7476C18.5597 16.2655 18.9189 15.8638 19.2875 15.5613C19.6609 15.2589 20.0248 15.0509 20.3461 14.9186C20.6675 14.7957 20.9322 14.739 21.1118 14.7154C21.2914 14.6965 21.3859 14.687 21.3859 14.687L21.3811 14.6917Z" fill="black"/>
<path d="M35.8868 18.1418C35.9057 20.8687 38.0608 23.0096 40.8728 23.4207C43.6848 23.8319 46.3125 22.0313 46.218 18.9972C46.1234 15.9631 43.543 13.2976 40.7736 13.1889C38.0041 13.0802 35.8679 15.4148 35.8868 18.1418Z" fill="#BEE7FB"/>
<path d="M36.8803 21.7855C35.9681 20.8923 35.7791 19.4603 35.7697 18.137C35.7507 15.4857 37.9484 13.2125 40.7792 13.3259C43.6101 13.4394 46.2473 16.0576 46.3418 19.0161C46.4363 21.9746 43.7425 23.9831 40.869 23.5673C39.4323 23.3593 37.7924 22.6835 36.8803 21.7903V21.7855ZM37.5514 18.2174C37.5703 20.1598 39.0732 21.8281 40.9399 22.0644C42.8067 22.3007 44.527 20.8781 44.4703 18.7892C44.4136 16.7003 42.6886 14.7816 40.8501 14.687C39.0117 14.5925 37.5325 16.2703 37.5514 18.2174Z" fill="#FFF9BB"/>
<path d="M35.7697 18.137C35.7507 15.4857 37.9484 13.2125 40.7792 13.3259C43.6101 13.4394 46.2473 16.0576 46.3418 19.0161C46.4363 21.9746 43.7566 23.7232 40.8785 23.3073M37.5514 18.2221C37.5703 20.1645 39.0732 21.8328 40.9399 22.0691C42.8067 22.3054 44.527 20.8829 44.4703 18.794C44.4136 16.7051 42.6886 14.7863 40.8501 14.6918C39.0117 14.5972 37.5325 16.275 37.5514 18.2221Z" fill="#FFF9BB"/>
<path d="M35.7685 18.137C35.7685 18.137 35.7637 18.052 35.7543 17.896C35.7354 17.7401 35.7307 17.5085 35.7543 17.2107C35.7637 17.0595 35.8015 16.8988 35.8299 16.7192C35.8677 16.5396 35.9244 16.3506 35.9906 16.1474C36.1371 15.7457 36.3592 15.2967 36.6995 14.8525C37.035 14.4035 37.5029 13.964 38.1078 13.6142C38.7033 13.2598 39.45 12.9951 40.2771 12.9479C40.4898 12.9479 40.6788 12.9195 40.9198 12.9479C41.1183 12.962 41.2979 12.9668 41.5342 13.014C41.6713 13.0377 41.7374 13.0518 41.8745 13.0755C41.9832 13.0991 42.0919 13.1322 42.2006 13.1653C42.418 13.222 42.6259 13.307 42.8386 13.3921C43.6798 13.7418 44.4455 14.3042 45.0693 14.9706C45.6884 15.6417 46.1563 16.4168 46.454 17.2013C46.7565 17.9858 46.851 18.7892 46.799 19.4981C46.7518 20.2307 46.5155 20.8923 46.1705 21.4358C45.8302 21.984 45.3623 22.4094 44.8661 22.7213C44.3746 23.0427 43.8263 23.2175 43.3443 23.331C42.8622 23.4491 42.3991 23.4538 42.0352 23.4538C41.6618 23.4397 41.3735 23.4066 41.1798 23.364C40.986 23.331 40.882 23.3121 40.882 23.3121C40.882 23.3121 40.986 23.3121 41.1798 23.3215C41.3735 23.3357 41.6524 23.3215 41.9974 23.2931C42.3376 23.2459 42.7441 23.1892 43.1694 23.0285C43.5948 22.8725 44.0437 22.6551 44.4455 22.3243C44.8424 21.9982 45.1969 21.5776 45.4568 21.0719C45.712 20.5615 45.8538 19.9802 45.8774 19.3469C45.9011 18.6947 45.764 18.0236 45.5088 17.3525C45.2489 16.6862 44.8424 16.0387 44.3226 15.4857C43.8122 14.9233 43.1883 14.4555 42.5031 14.1625C42.3329 14.0868 42.1628 14.0159 41.9879 13.9687C41.9029 13.9403 41.8131 13.9072 41.728 13.8836C41.6287 13.86 41.5768 13.8505 41.4775 13.8269C41.3263 13.7796 41.1136 13.7655 40.9198 13.7418C40.7686 13.7135 40.5796 13.7324 40.4142 13.7229C39.7289 13.7371 39.0861 13.9072 38.5379 14.1719C37.9944 14.4413 37.5313 14.7863 37.1768 15.1596C36.8271 15.5377 36.553 15.9205 36.3592 16.2797C36.2694 16.464 36.1891 16.6342 36.1182 16.7949C36.0615 16.9603 35.9953 17.1115 35.9622 17.2486C35.9244 17.3903 35.8961 17.5132 35.8677 17.6219C35.8441 17.7306 35.8346 17.8299 35.8204 17.9055C35.7968 18.0614 35.7826 18.1418 35.7826 18.1418L35.7685 18.137Z" fill="black"/>
<path d="M37.5505 18.2221C37.5505 18.2221 37.5552 18.3025 37.5694 18.449C37.5788 18.5955 37.6072 18.8081 37.6781 19.0775C37.7395 19.3469 37.8624 19.6683 38.0703 20.0133C38.2783 20.3583 38.5618 20.7316 38.9825 21.0625C39.1857 21.2326 39.4267 21.3838 39.6866 21.5209C39.956 21.6438 40.2396 21.7619 40.5468 21.8139C40.6933 21.847 40.8634 21.8612 40.9957 21.8706C41.0997 21.8706 41.1517 21.8706 41.2557 21.8753C41.336 21.8753 41.4022 21.8612 41.4731 21.8564C41.7614 21.8186 42.0686 21.743 42.3285 21.6107C42.8578 21.3555 43.2831 20.9349 43.562 20.4339C43.8361 19.9377 43.9779 19.328 43.959 18.7562C43.9448 18.5955 43.9495 18.4064 43.9164 18.2694C43.8975 18.1276 43.8692 17.9764 43.8266 17.8251C43.7463 17.5227 43.6281 17.2202 43.4816 16.9319C43.1886 16.3601 42.7538 15.8307 42.2245 15.4574C41.6952 15.0793 41.0761 14.8714 40.457 14.9044C40.1781 14.9044 39.8804 14.9848 39.6205 15.0746C39.3653 15.1833 39.1242 15.3014 38.9305 15.4574C38.5193 15.7504 38.2405 16.1143 38.042 16.4499C37.8435 16.7854 37.7253 17.1068 37.6686 17.3714C37.6072 17.6361 37.5788 17.8535 37.5741 18C37.5646 18.1465 37.5599 18.2221 37.5599 18.2221H37.5505ZM37.5505 18.2221C37.5505 18.2221 37.5505 18.1465 37.5552 18C37.5552 17.8535 37.5741 17.6361 37.6308 17.3667C37.6781 17.0973 37.7915 16.776 37.9522 16.4168C38.1223 16.0623 38.3823 15.6795 38.7603 15.3156C39.1431 14.9612 39.6583 14.6303 40.3719 14.5169C41.0383 14.3988 41.8842 14.55 42.5884 14.9564C43.3021 15.3581 43.9023 15.9725 44.3134 16.6578C44.4268 16.8279 44.5072 17.0075 44.597 17.1871C44.6632 17.3714 44.7482 17.551 44.7955 17.7353C44.8522 17.9197 44.8995 18.1087 44.9278 18.3072C44.9703 18.5104 44.9703 18.6569 44.9892 18.8318C44.9845 19.2335 44.9562 19.5738 44.8522 19.9188C44.8144 20.0936 44.7388 20.2543 44.6773 20.4197C44.5923 20.5757 44.5166 20.7316 44.4127 20.8734C44.0251 21.4547 43.4249 21.9084 42.7018 22.1447C42.3427 22.2723 41.9551 22.3149 41.5581 22.3196C41.4589 22.3196 41.3502 22.3196 41.2604 22.3101C41.1564 22.296 41.1044 22.2912 41.0005 22.2771C40.7925 22.2392 40.6224 22.2062 40.4428 22.1447C39.7386 21.9226 39.2046 21.5445 38.817 21.1664C38.4295 20.7789 38.1649 20.3914 37.9853 20.0322C37.8151 19.673 37.697 19.3469 37.6403 19.0775C37.5788 18.8081 37.5552 18.5907 37.5505 18.449C37.5457 18.3025 37.541 18.2268 37.541 18.2268L37.5505 18.2221Z" fill="black"/>
<path d="M31.1126 19.9377C30.7629 19.9377 28.9339 22.641 28.9434 23.1797C28.9528 23.7138 29.5152 24.1108 30.1911 24.0966C30.5597 24.0919 30.8858 23.9642 31.1126 23.7705C31.3395 23.969 31.6656 24.0919 32.0342 24.0966C32.7148 24.1108 33.2724 23.7138 33.2819 23.1797C33.2913 22.6457 31.4576 19.9377 31.1126 19.9377Z" fill="black"/>
<path d="M31.4683 29.2101C31.1847 29.2101 31.043 29.2101 30.7594 29.2101C29.9749 29.2196 29.3038 28.8699 29.266 28.3358C29.1951 27.3245 29.1667 26.7762 29.1289 25.6184C30.7169 25.5427 31.5108 25.5427 33.1035 25.6184C33.0657 26.7762 33.0373 27.3245 32.9664 28.3358C32.9286 28.8699 32.2575 29.2196 31.473 29.2101H31.4683Z" fill="#FFF9BB"/>
<path d="M33.099 25.6231C33.099 25.6231 33.151 25.779 33.2171 26.0484C33.2833 26.3178 33.3589 26.6959 33.4109 27.1307C33.4392 27.3481 33.4676 27.5844 33.477 27.8254C33.4818 27.9436 33.4865 28.0664 33.4912 28.194C33.4912 28.3216 33.5149 28.4209 33.4534 28.6288C33.3447 28.9691 33.0139 29.2574 32.546 29.4228C32.3144 29.5032 32.0545 29.5646 31.7804 29.5835C31.7142 29.5882 31.6433 29.5929 31.5772 29.5929C31.5063 29.5929 31.4354 29.5929 31.3976 29.5929C31.2842 29.5929 31.2227 29.5929 31.1093 29.5929C30.9959 29.5929 30.9344 29.5929 30.821 29.5929C30.6556 29.5929 30.6462 29.5929 30.4477 29.5835C30.1546 29.5599 29.9089 29.5079 29.6726 29.4228C29.2047 29.2574 28.8739 28.9644 28.7652 28.6336C28.7368 28.5532 28.7274 28.4634 28.7227 28.3831C28.7227 28.3216 28.7227 28.2602 28.7227 28.194C28.7274 28.0712 28.7321 27.9483 28.7368 27.8254C28.751 27.5844 28.7794 27.3528 28.803 27.1307C28.855 26.6959 28.9306 26.3178 28.9968 26.0484C29.0629 25.779 29.1149 25.6231 29.1149 25.6231C29.1149 25.6231 29.1811 25.7743 29.2662 26.0342C29.3512 26.2942 29.4599 26.6628 29.5544 27.0881C29.6064 27.3008 29.6584 27.5277 29.7009 27.764C29.7198 27.8821 29.7435 28.0003 29.7624 28.1232C29.7718 28.1846 29.7813 28.246 29.7907 28.3075C29.8002 28.35 29.8144 28.3878 29.8333 28.4209C29.9089 28.5674 30.0696 28.6855 30.2728 28.7564C30.5044 28.8273 30.6131 28.8273 31.0999 28.8226C31.218 28.8226 31.2794 28.8226 31.4023 28.8226C31.459 28.8226 31.4874 28.8226 31.5157 28.8226C31.5441 28.8226 31.5725 28.8226 31.6008 28.8226C31.7142 28.8132 31.8277 28.7942 31.9269 28.7612C32.1301 28.695 32.2955 28.5674 32.3664 28.4256C32.4042 28.3925 32.4137 28.2413 32.4373 28.1232C32.4609 28.0003 32.4799 27.8821 32.4988 27.764C32.5413 27.5277 32.5933 27.3008 32.6453 27.0881C32.7398 26.6628 32.8485 26.2942 32.9336 26.0342C33.0186 25.7743 33.0801 25.6231 33.0801 25.6231H33.099Z" fill="black"/>
<path d="M35.1711 29.5599C34.8922 29.5126 34.7504 29.489 34.4669 29.4464C33.6918 29.333 33.0963 28.884 33.1389 28.35C33.2192 27.3339 33.2476 26.7857 33.2901 25.6278C34.878 25.7129 35.6673 25.7932 37.2883 26.0106C37.156 27.2158 37.0709 27.7876 36.8252 28.851C36.6976 29.4134 35.9414 29.6875 35.1663 29.5551L35.1711 29.5599Z" fill="#FFF9BB"/>
<path d="M37.2948 26.0153C37.2948 26.0153 37.3374 26.1855 37.3799 26.469C37.4224 26.7573 37.465 27.159 37.465 27.6269C37.465 27.8585 37.465 28.109 37.4413 28.3689C37.4272 28.4965 37.4177 28.6288 37.3988 28.7612C37.3752 28.8982 37.3846 29.0069 37.2854 29.2243C37.1152 29.574 36.7135 29.8387 36.2126 29.9427C35.9621 29.9947 35.6927 30.0136 35.4186 29.9899C35.3524 29.9852 35.2815 29.9805 35.2154 29.9663C35.1445 29.9569 35.0736 29.9474 35.0358 29.938C34.9224 29.9191 34.8657 29.9096 34.7475 29.8907C34.6341 29.8718 34.5774 29.8623 34.4592 29.8434C34.2938 29.8151 34.2843 29.8151 34.0906 29.7725C33.807 29.7017 33.5754 29.6071 33.358 29.4843C32.928 29.248 32.6586 28.9077 32.6066 28.5674C32.5924 28.4823 32.5972 28.3973 32.6066 28.3169C32.6161 28.2555 32.6255 28.194 32.6397 28.1326C32.6633 28.0097 32.6822 27.8916 32.7059 27.7734C32.7484 27.5371 32.8051 27.3103 32.8571 27.0976C32.9563 26.6723 33.065 26.3036 33.1548 26.0437C33.2399 25.7838 33.3061 25.6325 33.3061 25.6325C33.3061 25.6325 33.358 25.7885 33.4242 26.0579C33.4856 26.3273 33.566 26.7053 33.6133 27.1449C33.6416 27.3623 33.6652 27.5986 33.6794 27.8396C33.6841 27.9625 33.6889 28.0853 33.6936 28.2082C33.6936 28.2697 33.6936 28.3311 33.6936 28.3973C33.6936 28.4398 33.703 28.4776 33.7172 28.5201C33.7692 28.6761 33.9063 28.8226 34.0953 28.9219C34.3127 29.0306 34.4214 29.0447 34.9035 29.1109C35.0216 29.1298 35.083 29.1393 35.2012 29.1582C35.2579 29.1676 35.2863 29.1723 35.3146 29.1771C35.343 29.1818 35.3713 29.1818 35.3997 29.1865C35.5131 29.1912 35.6313 29.1865 35.74 29.1676C35.9574 29.1251 36.1417 29.0164 36.2409 28.8793C36.2835 28.851 36.3213 28.6903 36.3638 28.5721C36.4063 28.4493 36.4441 28.3264 36.482 28.2035C36.5576 27.9625 36.6426 27.7309 36.7183 27.5135C36.8648 27.0787 37.0113 26.7053 37.12 26.4407C37.2287 26.176 37.3043 26.0248 37.3043 26.0248L37.2948 26.0153Z" fill="black"/>
<path d="M27.0489 29.5599C27.3277 29.5126 27.4695 29.489 27.7531 29.4464C28.5282 29.333 29.1236 28.884 29.0811 28.35C29.0008 27.3339 28.9724 26.7857 28.9299 25.6278C27.3419 25.7129 26.5527 25.7932 24.9316 26.0106C25.064 27.2158 25.149 27.7876 25.3948 28.851C25.5224 29.4134 26.2786 29.6875 27.0536 29.5551L27.0489 29.5599Z" fill="#FFF9BB"/>
<path d="M24.9322 26.0153C24.9322 26.0153 25.0078 26.1666 25.1165 26.4312C25.2252 26.6959 25.3717 27.0692 25.5182 27.504C25.5938 27.7214 25.6789 27.953 25.7545 28.194C25.7923 28.3169 25.8301 28.4398 25.8727 28.5627C25.9152 28.6808 25.953 28.8415 25.9955 28.8699C26.0948 29.0069 26.2791 29.1156 26.4965 29.1582C26.6052 29.1818 26.7186 29.1818 26.8368 29.1771C26.8651 29.1771 26.8935 29.1771 26.9218 29.1676C26.9502 29.1676 26.9738 29.1629 27.0353 29.1487C27.1534 29.1298 27.2148 29.1203 27.333 29.1014C27.8151 29.0353 27.9237 29.0211 28.1411 28.9124C28.3302 28.8131 28.472 28.6666 28.5192 28.5107C28.5334 28.4729 28.5381 28.4351 28.5429 28.3878C28.5429 28.3264 28.5429 28.2649 28.5429 28.1988C28.5429 28.0759 28.5523 27.953 28.557 27.8301C28.5712 27.5891 28.5948 27.3528 28.6232 27.1354C28.6705 26.6959 28.7508 26.3178 28.8122 26.0484C28.8737 25.779 28.9304 25.6231 28.9304 25.6231C28.9304 25.6231 28.9966 25.7743 29.0816 26.0342C29.1667 26.2942 29.2801 26.6628 29.3794 27.0881C29.4314 27.3008 29.4833 27.5277 29.5306 27.764C29.5542 27.8821 29.5731 28.0003 29.5968 28.1231C29.6062 28.1846 29.6157 28.246 29.6298 28.3075C29.6393 28.3878 29.6393 28.4729 29.6298 28.5579C29.5779 28.8982 29.3038 29.2385 28.8784 29.4748C28.661 29.5929 28.4342 29.6922 28.1459 29.7631C27.9521 29.8103 27.9427 29.8056 27.7772 29.834C27.6638 29.8529 27.6071 29.8623 27.489 29.8812C27.3755 29.9001 27.3188 29.9096 27.2007 29.9285C27.1629 29.9379 27.092 29.9474 27.0211 29.9569C26.9549 29.9663 26.884 29.9758 26.8179 29.9805C26.5437 30.0041 26.2696 29.9852 26.0239 29.9332C25.5229 29.8292 25.1212 29.5646 24.9511 29.2149C24.8518 29.0022 24.8566 28.8888 24.8376 28.7517C24.8235 28.6194 24.8093 28.4871 24.7951 28.3595C24.7715 28.0995 24.7715 27.849 24.7715 27.6175C24.7715 27.1496 24.814 26.7479 24.8566 26.4596C24.8991 26.1713 24.9416 26.0059 24.9416 26.0059L24.9322 26.0153Z" fill="black"/>
<path d="M25.7783 3.43907C26.5061 5.19243 26.8417 6.07147 27.5269 7.81065C27.4561 7.73976 27.423 7.70196 27.3521 7.63106C29.3323 8.98271 30.3153 9.65853 32.3239 11.0149C30.1121 9.95155 29.0204 9.42696 26.8322 8.3825C26.7991 8.36833 26.785 8.35887 26.7519 8.3447C26.7141 8.28798 26.6952 8.25963 26.6574 8.20764C25.5987 6.6386 25.0789 5.83517 23.9824 4.25195C24.6961 3.92585 25.0552 3.76517 25.7689 3.4438L25.7783 3.43907Z" fill="black"/>
<path d="M27.6907 8.08004C27.1992 9.63963 26.9487 10.4194 26.4336 11.9601C26.4619 10.3674 26.4809 9.55929 26.495 7.93353C26.9724 7.99025 27.2134 8.0186 27.6907 8.07531V8.08004Z" fill="black"/>
<path d="M27.1581 9.59237C26.2318 10.1831 25.7686 10.4761 24.8281 11.0763C25.5512 10.2682 25.9057 9.8712 26.6146 9.06305C26.832 9.27572 26.9407 9.38442 27.1581 9.59237Z" fill="black"/>
<path d="M38.0497 18.0189C38.0497 18.0189 38.0686 18.0898 38.097 18.2174C38.1112 18.2788 38.1206 18.3544 38.1537 18.4395C38.1821 18.5246 38.2057 18.6191 38.2435 18.7183C38.286 18.8176 38.3144 18.931 38.3711 19.0444C38.4231 19.1579 38.4751 19.276 38.546 19.3942C38.6027 19.517 38.6925 19.6305 38.7681 19.7533C38.8579 19.8715 38.9382 19.9944 39.0469 20.1031C39.1415 20.2212 39.2549 20.3252 39.3636 20.4292C39.4865 20.5237 39.5904 20.6324 39.718 20.7175C39.8362 20.8073 39.9685 20.8829 40.0867 20.9585C40.2143 21.0199 40.3277 21.0955 40.4458 21.1428C40.6774 21.2515 40.8854 21.3271 41.0366 21.3696C41.1878 21.4122 41.2729 21.4405 41.2729 21.4405C41.2729 21.4405 41.1831 21.4405 41.0271 21.4264C40.9468 21.4264 40.8523 21.4027 40.7436 21.3838C40.6302 21.3696 40.512 21.3318 40.375 21.294C40.2379 21.2562 40.1056 21.1948 39.9591 21.1381C39.822 21.0672 39.666 20.9963 39.529 20.9018C39.3825 20.8167 39.2502 20.7127 39.1131 20.604C38.9902 20.4906 38.8579 20.3772 38.7539 20.2496C38.6405 20.1267 38.5507 19.9944 38.4609 19.8668C38.3806 19.7344 38.3002 19.6021 38.2482 19.4698C38.1821 19.3422 38.1443 19.2099 38.1112 19.087C38.0686 18.9641 38.0592 18.8459 38.0403 18.7372C38.0214 18.6285 38.0261 18.5293 38.0214 18.4395C38.0167 18.3497 38.0214 18.2788 38.0308 18.2127C38.0403 18.0898 38.0545 18.0189 38.0545 18.0189H38.0497Z" fill="white"/>
<path d="M64.2798 22.2109V23.7657C64.2798 26.5163 62.9848 27.8916 60.3902 27.8916H58.2919C55.702 27.8916 54.4023 26.5163 54.4023 23.7657V7.73977C54.4023 4.98921 55.6973 3.61394 58.2919 3.61394H60.3902C62.9801 3.61394 64.2798 4.98921 64.2798 7.73977V10.4761H61.033V7.97607C61.033 7.03086 60.5462 6.55826 59.5774 6.55826H58.9346C58.0792 6.55826 57.6491 7.03086 57.6491 7.97607V23.5294C57.6491 24.4747 58.0792 24.9473 58.9346 24.9473H59.7475C60.6029 24.9473 61.033 24.4747 61.033 23.5294V22.2109H64.2798Z" fill="black"/>
<path d="M66.8164 3.61867H72.7334C75.3469 3.61867 76.656 5.0034 76.656 7.77758V14.9801C76.656 17.7306 75.3611 19.1059 72.7665 19.1059H70.0632V27.8963H66.8164V3.61867ZM70.0632 16.1616H72.1237C72.9792 16.1616 73.4092 15.689 73.4092 14.7438V7.9808C73.4092 7.03559 72.9224 6.56299 71.9536 6.56299H70.0585V16.1663L70.0632 16.1616Z" fill="black"/>
<path d="M82.2995 27.8916H79.0527V7.77758C79.0527 5.0034 80.3477 3.61867 82.9423 3.61867H85.3762C87.966 3.61867 89.2657 5.0034 89.2657 7.77758V27.8916H86.0189V19.0019H82.2995V27.8916ZM86.0189 16.0576V7.9808C86.0189 7.03559 85.5463 6.56299 84.6011 6.56299H83.7221C82.7768 6.56299 82.3042 7.03559 82.3042 7.9808V16.0623H86.0236L86.0189 16.0576Z" fill="black"/>
<path d="M95.0789 23.7657V27.8916H91.6289V23.7657H95.0789Z" fill="black"/>
<path d="M97.825 3.61867H104.182C106.663 3.61867 107.901 5.0034 107.901 7.77758V13.7607C107.901 15.878 107.258 17.2202 105.973 17.7826L108.236 27.8916H105.16L103.028 18.0898H101.067V27.8916H97.8203V3.61867H97.825ZM101.072 15.3156H103.203C104.172 15.3156 104.659 14.7296 104.659 13.5575V8.31635C104.659 7.14429 104.172 6.55826 103.203 6.55826H101.072V15.3156Z" fill="black"/>
<path d="M110.605 27.8916V3.61867H113.852V27.8916H110.605Z" fill="black"/>
<path d="M116.891 3.61867H122.808C125.421 3.61867 126.73 5.0034 126.73 7.77758V14.9801C126.73 17.7306 125.435 19.1059 122.841 19.1059H120.137V27.8963H116.891V3.61867ZM120.137 16.1616H122.198C123.053 16.1616 123.483 15.689 123.483 14.7438V7.9808C123.483 7.03559 122.997 6.56299 122.028 6.56299H120.133V16.1663L120.137 16.1616Z" fill="black"/>
<path d="M21.8134 18.5813C22.2702 18.5813 22.6404 18.211 22.6404 17.7542C22.6404 17.2975 22.2702 16.9272 21.8134 16.9272C21.3566 16.9272 20.9863 17.2975 20.9863 17.7542C20.9863 18.211 21.3566 18.5813 21.8134 18.5813Z" fill="black"/>
<path d="M40.4052 18.5813C40.862 18.5813 41.2322 18.211 41.2322 17.7542C41.2322 17.2975 40.862 16.9272 40.4052 16.9272C39.9484 16.9272 39.5781 17.2975 39.5781 17.7542C39.5781 18.211 39.9484 18.5813 40.4052 18.5813Z" fill="black"/>
<path d="M25.6566 14.1483C25.6566 14.1483 25.6471 14.1246 25.633 14.0868C25.6141 14.049 25.6093 13.9781 25.5573 13.9167C25.5148 13.8505 25.4723 13.7796 25.3967 13.6993C25.3352 13.6142 25.236 13.5433 25.1415 13.4535C25.0328 13.3779 24.9288 13.2881 24.7964 13.2078C24.6736 13.1227 24.5318 13.0518 24.39 12.9762C24.2482 12.9006 24.0875 12.8392 23.9316 12.7683C23.7709 12.7068 23.6102 12.6407 23.4401 12.5981C23.1093 12.4847 22.7643 12.428 22.4429 12.3713C22.2775 12.3618 22.1215 12.3335 21.9703 12.3287C21.819 12.3287 21.6725 12.3146 21.5402 12.3146C21.2756 12.324 21.044 12.3287 20.888 12.3524C20.7273 12.3666 20.6328 12.3713 20.6328 12.3713C20.6328 12.3713 20.7132 12.3287 20.8644 12.2626C21.0109 12.187 21.233 12.1114 21.5119 12.0452C21.7907 11.9837 22.1215 11.9459 22.4807 11.9554C22.6556 11.9696 22.8446 11.9743 23.0289 12.0121C23.2132 12.0499 23.4023 12.083 23.5819 12.1444C23.7662 12.1964 23.941 12.272 24.1159 12.3477C24.286 12.4233 24.4467 12.5178 24.6027 12.6123C24.7539 12.7068 24.8957 12.8155 25.0186 12.9242C25.1462 13.0235 25.2454 13.1511 25.3447 13.2598C25.4297 13.3779 25.5101 13.4819 25.5573 13.5953C25.6141 13.6946 25.6424 13.8033 25.6613 13.8883C25.6897 13.9687 25.6613 14.0348 25.6708 14.0774C25.6708 14.1199 25.6708 14.1435 25.6708 14.1435L25.6566 14.1483Z" fill="black"/>
<path d="M36.5731 14.1483C36.5731 14.1483 36.5731 14.1246 36.5731 14.0821C36.5779 14.0396 36.5542 13.9734 36.5826 13.8931C36.6015 13.808 36.6251 13.6993 36.6866 13.6001C36.7338 13.4866 36.8142 13.3827 36.8992 13.2645C36.9937 13.1605 37.093 13.0282 37.2253 12.929C37.3482 12.8155 37.4853 12.7116 37.6412 12.617C37.7924 12.5225 37.9531 12.428 38.128 12.3524C38.3029 12.2768 38.4777 12.2011 38.662 12.1492C38.8416 12.0877 39.0307 12.0546 39.215 12.0168C39.3993 11.979 39.5883 11.9743 39.7632 11.9601C40.1224 11.9507 40.4532 11.9885 40.732 12.0499C41.0061 12.1161 41.2283 12.1917 41.3748 12.2673C41.5213 12.3335 41.6064 12.376 41.6064 12.376C41.6064 12.376 41.5118 12.3666 41.3511 12.3571C41.1952 12.3335 40.9636 12.3288 40.699 12.3193C40.5666 12.3193 40.4201 12.3335 40.2689 12.3335C40.1177 12.3382 39.9617 12.3666 39.7963 12.376C39.4749 12.4327 39.1299 12.4894 38.7991 12.6029C38.629 12.6454 38.4683 12.7116 38.3076 12.773C38.1516 12.8392 37.9909 12.9053 37.8492 12.9809C37.7074 13.0566 37.5656 13.1322 37.4427 13.2125C37.3104 13.2881 37.2064 13.3779 37.0977 13.4583C37.0032 13.5481 36.9039 13.619 36.8425 13.704C36.7669 13.7844 36.7196 13.8553 36.6818 13.9214C36.6346 13.9829 36.6251 14.0538 36.6062 14.0916C36.592 14.1341 36.5826 14.153 36.5826 14.153L36.5731 14.1483Z" fill="black"/>
<path d="M38.2982 10.6226C37.7358 10.6226 37.2773 10.1642 37.2773 9.60182C37.2773 9.03942 37.7358 8.58099 38.2982 8.58099C38.8606 8.58099 39.319 9.03942 39.319 9.60182C39.319 10.1642 38.8606 10.6226 38.2982 10.6226ZM38.2982 9.04887C37.9957 9.04887 37.7499 9.29462 37.7499 9.59709C37.7499 9.89956 37.9957 10.1453 38.2982 10.1453C38.6006 10.1453 38.8464 9.89956 38.8464 9.59709C38.8464 9.29462 38.6006 9.04887 38.2982 9.04887Z" fill="black"/>
<path d="M40.4062 11.0953C40.0139 11.0953 39.6973 10.7786 39.6973 10.3863C39.6973 9.99409 40.0139 9.67744 40.4062 9.67744C40.7984 9.67744 41.1151 9.99409 41.1151 10.3863C41.1151 10.7786 40.7984 11.0953 40.4062 11.0953ZM40.4062 10.1548C40.2786 10.1548 40.1699 10.2587 40.1699 10.3911C40.1699 10.5234 40.2738 10.6274 40.4062 10.6274C40.5385 10.6274 40.6425 10.5234 40.6425 10.3911C40.6425 10.2587 40.5385 10.1548 40.4062 10.1548Z" fill="black"/>
<path d="M17.4794 9.616L19.6864 10.8589L17.1816 10.5139L17.4794 9.616Z" fill="black"/>
</svg>
