<svg width="128" height="38" viewBox="0 0 128 38" fill="none" xmlns="http://www.w3.org/2000/svg">
<path d="M33.9831 8.01285H4.38867V29.625H33.9831V8.01285Z" fill="#21BDBC"/>
<path d="M32.8393 28.7979V8.84936C32.8393 7.97977 32.1351 7.27559 31.2655 7.27559H4.80918C3.93959 7.27559 3.23541 7.97977 3.23541 8.84936V28.7979H1V30.8916H35.0747V28.7979H32.8393ZM20.5469 29.2044H15.5231V28.3915H20.5469V29.2044ZM31.1001 27.3282H4.9746V9.01477H31.1001V27.3282Z" fill="black"/>
<path d="M11.3878 10.5649C10.5088 10.7161 9.62976 10.7965 8.74599 10.8532C8.30647 10.8863 7.86695 10.8957 7.42743 10.9146C6.98791 10.9288 6.54839 10.9288 6.10887 10.9335L6.4775 10.5649C6.47277 11.0044 6.46804 11.4439 6.45859 11.8835C6.43969 12.323 6.43024 12.7625 6.39715 13.202C6.34517 14.0811 6.26482 14.9601 6.10887 15.8439C5.95763 14.9648 5.87729 14.0858 5.82058 13.202C5.78749 12.7625 5.77804 12.323 5.75914 11.8835C5.74969 11.4439 5.74496 11.0044 5.74023 10.5649V10.1915L6.10887 10.1963C6.54839 10.2057 6.98791 10.2057 7.42743 10.2152C7.86695 10.2341 8.30647 10.2435 8.74599 10.2766C9.62504 10.3286 10.5041 10.4089 11.3878 10.5649Z" fill="black"/>
<path d="M36.5494 30.6978C32.9434 30.2394 29.2807 30.2394 25.6748 30.6978C22.2767 31.0948 18.184 29.7904 17.3758 26.8225C16.3928 23.2023 16.2699 21.1229 16.2936 17.0207C16.7 10.149 23.5811 5.7538 29.9565 5.60729C30.8828 5.59784 31.346 5.59784 32.2723 5.60729C38.6477 5.7538 45.5288 10.149 45.9353 17.0207C45.9589 21.1229 45.836 23.207 44.853 26.8225C44.0449 29.7904 39.9521 31.0948 36.5541 30.6978H36.5494Z" fill="#FFF9BB"/>
<path d="M37.7629 31.3642C37.3281 31.3642 36.898 31.3406 36.4774 31.2886C32.9234 30.8396 29.2844 30.8396 25.7446 31.2886C25.3192 31.3358 24.8892 31.3642 24.4544 31.3642C21.2359 31.3642 17.6158 30.0078 16.7935 26.9784C15.7632 23.1976 15.6687 21.0378 15.6876 17.0159C16.1318 9.68586 23.2823 5.16305 29.9413 5.00709C30.8865 4.99764 31.3449 4.99764 32.276 5.00709C38.9491 5.16305 46.0949 9.68114 46.5297 16.9829C46.5533 21.0425 46.4541 23.1976 45.4285 26.9784C44.6062 30.0078 40.986 31.3642 37.7676 31.3642H37.7629ZM31.1086 29.7573C32.9471 29.7573 34.7997 29.8755 36.6239 30.1023C36.9925 30.1449 37.3753 30.1685 37.7629 30.1685C40.4378 30.1685 43.6137 29.0721 44.2706 26.6665C45.2584 23.0275 45.3529 20.9338 45.334 17.0207C44.9465 10.5271 38.2449 6.33983 32.2571 6.20278C31.3544 6.19332 30.8818 6.19332 29.9602 6.20278C23.9818 6.33983 17.2755 10.5271 16.888 17.0538C16.8691 20.9338 16.9589 23.0275 17.9513 26.6665C18.6083 29.0721 21.7842 30.1685 24.4591 30.1685C24.8466 30.1685 25.2294 30.1449 25.6028 30.1023C27.4176 29.8708 29.2702 29.7573 31.1086 29.7573Z" fill="black"/>
<path d="M26.3375 21.1417C26.3186 23.8687 24.1635 26.0096 21.3515 26.4207C18.5395 26.8319 15.9119 25.0313 16.0064 21.9972C16.1009 18.963 18.6813 16.2976 21.4508 16.1889C24.2202 16.0802 26.3564 18.4148 26.3375 21.1417Z" fill="#BEE7FB"/>
<path d="M21.3863 26.5767C18.5082 26.9926 15.7907 24.9698 15.8852 22.0113C15.9797 19.0528 18.6169 16.4346 21.4478 16.3212C24.2786 16.2078 26.4763 18.481 26.4573 21.1323C26.4479 22.4603 26.2589 23.8876 25.3467 24.7808C24.4346 25.674 22.823 26.364 21.3863 26.572V26.5767ZM21.3816 17.6917C19.5432 17.7815 17.8134 19.705 17.7614 21.7939C17.7047 23.8828 19.425 25.3054 21.2918 25.0691C23.1586 24.8328 24.6615 23.1645 24.6804 21.2221C24.6993 19.2797 23.2247 17.6019 21.3816 17.6917Z" fill="#FFF9BB"/>
<path d="M21.3485 26.3026C18.4704 26.7185 15.7907 24.9698 15.8852 22.0113C15.9798 19.0528 18.6169 16.4346 21.4478 16.3212C24.2787 16.2078 26.4763 18.481 26.4574 21.1323M21.3816 17.687C19.5432 17.7768 17.8135 19.7003 17.7615 21.7892C17.7048 23.8781 19.425 25.3007 21.2918 25.0644C23.1586 24.8281 24.6615 23.1598 24.6804 21.2174C24.6993 19.275 23.2248 17.5972 21.3816 17.687Z" fill="#FFF9BB"/>
<path d="M21.3471 26.3026C21.3471 26.3026 21.2431 26.3215 21.0493 26.3546C20.8556 26.3924 20.5673 26.4254 20.1939 26.4443C19.83 26.4443 19.3669 26.4444 18.8848 26.3215C18.398 26.2128 17.8545 26.0332 17.363 25.7118C16.8668 25.3999 16.3989 24.9746 16.0586 24.4263C15.7136 23.8828 15.4773 23.2259 15.4301 22.4981C15.4301 22.3091 15.397 22.1437 15.4206 21.931C15.4348 21.7467 15.4301 21.586 15.4679 21.3828C15.5246 20.9763 15.6238 20.5841 15.7751 20.1918C16.0728 19.4073 16.5454 18.6322 17.1598 17.9611C17.7789 17.2947 18.5493 16.7371 19.3905 16.3826C20.2175 16.0187 21.1438 15.8864 21.9331 15.9431C22.7932 15.9904 23.5163 16.2597 24.1212 16.6095C24.7215 16.9592 25.1941 17.4034 25.5296 17.8477C25.8699 18.2967 26.092 18.7409 26.2385 19.1426C26.3047 19.3458 26.3614 19.5349 26.3992 19.7145C26.4276 19.8941 26.4606 20.0548 26.4748 20.206C26.4984 20.5037 26.4984 20.7353 26.4748 20.8913C26.4654 21.0472 26.4606 21.1323 26.4606 21.1323C26.4606 21.1323 26.4465 21.0519 26.4228 20.896C26.4086 20.8204 26.3992 20.7258 26.3756 20.6172C26.3472 20.5085 26.3141 20.3856 26.281 20.2438C26.2432 20.102 26.1818 19.9555 26.1251 19.7901C26.0542 19.6294 25.9786 19.4545 25.8841 19.275C25.6856 18.9158 25.4162 18.5282 25.0665 18.1549C24.712 17.7815 24.2489 17.4365 23.7054 17.1671C23.1666 16.8978 22.5049 16.7323 21.848 16.7182C21.1249 16.6993 20.4302 16.8552 19.7449 17.153C19.0597 17.446 18.4358 17.9186 17.9254 18.4763C17.4056 19.0292 16.9991 19.6767 16.7392 20.343C16.6116 20.6786 16.5171 21.0141 16.4509 21.3308C16.4131 21.4867 16.4036 21.6805 16.38 21.8506C16.3564 21.9972 16.3706 22.172 16.3658 22.328C16.3847 22.966 16.5265 23.5567 16.7864 24.0624C17.0464 24.5681 17.3961 24.9887 17.7978 25.3148C18.1948 25.6456 18.6485 25.863 19.0738 26.019C19.4992 26.1797 19.9056 26.2411 20.2459 26.2837C20.5862 26.312 20.865 26.3309 21.0635 26.312C21.2573 26.3073 21.3612 26.3026 21.3612 26.3026H21.3471Z" fill="black"/>
<path d="M21.3811 17.6917C21.3811 17.6917 21.2866 17.7012 21.107 17.7248C20.9274 17.7532 20.6675 17.8146 20.3509 17.9422C20.039 18.0745 19.6751 18.2919 19.3395 18.6133C19.004 18.93 18.6731 19.3364 18.4416 19.8185C18.2005 20.2958 18.0446 20.8393 18.0209 21.3969C18.0209 21.534 18.0209 21.6805 18.0304 21.8081C18.0493 21.9499 18.0493 22.1106 18.0871 22.2335C18.1391 22.4981 18.2336 22.7675 18.3518 23.0227C18.4746 23.2732 18.6306 23.5189 18.8338 23.7269C19.0229 23.9443 19.2497 24.1333 19.5096 24.2846C19.7648 24.4358 20.0531 24.5539 20.3509 24.6201C20.4265 24.6437 20.5021 24.6532 20.5777 24.6626C20.6533 24.6721 20.729 24.6863 20.8093 24.6815C20.8896 24.6815 20.9653 24.691 21.0409 24.6815C21.0881 24.6815 21.1118 24.6768 21.159 24.6721C21.1827 24.6721 21.1921 24.6721 21.2157 24.6721C21.2252 24.6721 21.2346 24.6721 21.2441 24.6721C21.2488 24.6721 21.2535 24.6721 21.2583 24.6721C21.2583 24.6721 21.2583 24.6721 21.2677 24.6721C21.2535 24.6721 21.3055 24.6674 21.2394 24.6721C21.3575 24.6532 21.4142 24.6437 21.5277 24.6248C21.6269 24.6107 21.6694 24.587 21.7451 24.5681C21.8112 24.5539 21.8868 24.5256 21.9625 24.4972C22.0381 24.4689 22.1137 24.4452 22.1846 24.4074C22.4729 24.2751 22.7422 24.0955 22.988 23.897C23.2338 23.6985 23.4464 23.4717 23.626 23.2259C23.8151 22.9896 23.9616 22.7344 24.0844 22.4745C24.3207 21.9499 24.4436 21.4206 24.4436 20.8865C24.4436 20.3809 24.3255 19.8799 24.1222 19.4545C23.9285 19.0245 23.6402 18.67 23.333 18.4006C23.0258 18.1265 22.6903 17.9517 22.3878 17.8477C22.0853 17.7532 21.8301 17.7154 21.6505 17.7059C21.4709 17.7059 21.3764 17.7012 21.3764 17.7012L21.3811 17.6917ZM21.3811 17.6917C21.3811 17.6917 21.4757 17.6917 21.6553 17.6917C21.8348 17.6965 22.0901 17.7295 22.402 17.8193C22.7092 17.9139 23.0494 18.0887 23.3944 18.3392C23.7347 18.5944 24.0514 18.9441 24.3207 19.36C24.5854 19.7854 24.7886 20.2769 24.8879 20.8393C24.9777 21.3733 24.954 21.9877 24.7697 22.5926C24.5807 23.1976 24.2309 23.812 23.6544 24.346C23.3755 24.6154 23.0305 24.8611 22.6288 25.0549C22.5343 25.1069 22.4256 25.1494 22.3216 25.192C22.2177 25.2345 22.1137 25.277 21.9861 25.3101C21.8727 25.3432 21.7309 25.3857 21.6364 25.4046C21.5229 25.4283 21.4615 25.4377 21.3481 25.4613C21.2772 25.4708 21.3197 25.4613 21.3008 25.4661C21.3008 25.4661 21.2961 25.4661 21.2914 25.4661C21.2819 25.4661 21.2772 25.4661 21.2677 25.4661C21.2488 25.4661 21.2394 25.4661 21.2252 25.4661C21.1921 25.4661 21.1732 25.4661 21.1401 25.4708C21.0692 25.4755 21.0361 25.4802 20.9653 25.485C20.8471 25.4944 20.7337 25.485 20.6203 25.485C20.5068 25.485 20.3934 25.4661 20.2847 25.4519C20.176 25.4377 20.0626 25.4235 19.9633 25.3952C19.7507 25.3526 19.5569 25.277 19.3679 25.2061C19.193 25.1163 19.0134 25.0313 18.8622 24.9178C18.2336 24.4972 17.8461 23.9065 17.6476 23.2921C17.5483 22.9802 17.5011 22.6683 17.4869 22.3374C17.4727 22.172 17.4963 22.0302 17.5011 21.879C17.5153 21.7089 17.5436 21.5624 17.5672 21.4064C17.6948 20.7967 17.9406 20.2296 18.2478 19.7476C18.5597 19.2655 18.9189 18.8638 19.2875 18.5613C19.6609 18.2589 20.0248 18.0509 20.3461 17.9186C20.6675 17.7957 20.9322 17.739 21.1118 17.7154C21.2914 17.6965 21.3859 17.687 21.3859 17.687L21.3811 17.6917Z" fill="black"/>
<path d="M35.8868 21.1418C35.9057 23.8687 38.0608 26.0096 40.8728 26.4207C43.6848 26.8319 46.3125 25.0313 46.218 21.9972C46.1234 18.9631 43.543 16.2976 40.7736 16.1889C38.0041 16.0802 35.8679 18.4148 35.8868 21.1418Z" fill="#BEE7FB"/>
<path d="M36.8803 24.7855C35.9681 23.8923 35.7791 22.4603 35.7697 21.137C35.7507 18.4857 37.9484 16.2125 40.7792 16.3259C43.6101 16.4394 46.2473 19.0576 46.3418 22.0161C46.4363 24.9746 43.7425 26.9831 40.869 26.5673C39.4323 26.3593 37.7924 25.6835 36.8803 24.7903V24.7855ZM37.5514 21.2174C37.5703 23.1598 39.0732 24.8281 40.9399 25.0644C42.8067 25.3007 44.527 23.8781 44.4703 21.7892C44.4136 19.7003 42.6886 17.7816 40.8501 17.687C39.0117 17.5925 37.5325 19.2703 37.5514 21.2174Z" fill="#FFF9BB"/>
<path d="M35.7697 21.137C35.7507 18.4857 37.9484 16.2125 40.7792 16.3259C43.6101 16.4394 46.2473 19.0576 46.3418 22.0161C46.4363 24.9746 43.7566 26.7232 40.8785 26.3073M37.5514 21.2221C37.5703 23.1645 39.0732 24.8328 40.9399 25.0691C42.8067 25.3054 44.527 23.8829 44.4703 21.794C44.4136 19.7051 42.6886 17.7863 40.8501 17.6918C39.0117 17.5972 37.5325 19.275 37.5514 21.2221Z" fill="#FFF9BB"/>
<path d="M35.7685 21.137C35.7685 21.137 35.7637 21.052 35.7543 20.896C35.7354 20.7401 35.7307 20.5085 35.7543 20.2107C35.7637 20.0595 35.8015 19.8988 35.8299 19.7192C35.8677 19.5396 35.9244 19.3506 35.9906 19.1474C36.1371 18.7457 36.3592 18.2967 36.6995 17.8525C37.035 17.4035 37.5029 16.964 38.1078 16.6142C38.7033 16.2598 39.45 15.9951 40.2771 15.9479C40.4898 15.9479 40.6788 15.9195 40.9198 15.9479C41.1183 15.962 41.2979 15.9668 41.5342 16.014C41.6713 16.0377 41.7374 16.0518 41.8745 16.0755C41.9832 16.0991 42.0919 16.1322 42.2006 16.1653C42.418 16.222 42.6259 16.307 42.8386 16.3921C43.6798 16.7418 44.4455 17.3042 45.0693 17.9706C45.6884 18.6417 46.1563 19.4168 46.454 20.2013C46.7565 20.9858 46.851 21.7892 46.799 22.4981C46.7518 23.2307 46.5155 23.8923 46.1705 24.4358C45.8302 24.984 45.3623 25.4094 44.8661 25.7213C44.3746 26.0427 43.8263 26.2175 43.3443 26.331C42.8622 26.4491 42.3991 26.4538 42.0352 26.4538C41.6618 26.4397 41.3735 26.4066 41.1798 26.364C40.986 26.331 40.882 26.3121 40.882 26.3121C40.882 26.3121 40.986 26.3121 41.1798 26.3215C41.3735 26.3357 41.6524 26.3215 41.9974 26.2931C42.3376 26.2459 42.7441 26.1892 43.1694 26.0285C43.5948 25.8725 44.0437 25.6551 44.4455 25.3243C44.8424 24.9982 45.1969 24.5776 45.4568 24.0719C45.712 23.5615 45.8538 22.9802 45.8774 22.3469C45.9011 21.6947 45.764 21.0236 45.5088 20.3525C45.2489 19.6862 44.8424 19.0387 44.3226 18.4857C43.8122 17.9233 43.1883 17.4555 42.5031 17.1625C42.3329 17.0868 42.1628 17.0159 41.9879 16.9687C41.9029 16.9403 41.8131 16.9072 41.728 16.8836C41.6287 16.86 41.5768 16.8505 41.4775 16.8269C41.3263 16.7796 41.1136 16.7655 40.9198 16.7418C40.7686 16.7135 40.5796 16.7324 40.4142 16.7229C39.7289 16.7371 39.0861 16.9072 38.5379 17.1719C37.9944 17.4413 37.5313 17.7863 37.1768 18.1596C36.8271 18.5377 36.553 18.9205 36.3592 19.2797C36.2694 19.464 36.1891 19.6342 36.1182 19.7949C36.0615 19.9603 35.9953 20.1115 35.9622 20.2486C35.9244 20.3903 35.8961 20.5132 35.8677 20.6219C35.8441 20.7306 35.8346 20.8299 35.8204 20.9055C35.7968 21.0614 35.7826 21.1418 35.7826 21.1418L35.7685 21.137Z" fill="black"/>
<path d="M37.5505 21.2221C37.5505 21.2221 37.5552 21.3025 37.5694 21.449C37.5788 21.5955 37.6072 21.8081 37.6781 22.0775C37.7395 22.3469 37.8624 22.6683 38.0703 23.0133C38.2783 23.3583 38.5618 23.7316 38.9825 24.0625C39.1857 24.2326 39.4267 24.3838 39.6866 24.5209C39.956 24.6438 40.2396 24.7619 40.5468 24.8139C40.6933 24.847 40.8634 24.8612 40.9957 24.8706C41.0997 24.8706 41.1517 24.8706 41.2557 24.8753C41.336 24.8753 41.4022 24.8612 41.4731 24.8564C41.7614 24.8186 42.0686 24.743 42.3285 24.6107C42.8578 24.3555 43.2831 23.9349 43.562 23.4339C43.8361 22.9377 43.9779 22.328 43.959 21.7562C43.9448 21.5955 43.9495 21.4064 43.9164 21.2694C43.8975 21.1276 43.8692 20.9764 43.8266 20.8251C43.7463 20.5227 43.6281 20.2202 43.4816 19.9319C43.1886 19.3601 42.7538 18.8307 42.2245 18.4574C41.6952 18.0793 41.0761 17.8714 40.457 17.9044C40.1781 17.9044 39.8804 17.9848 39.6205 18.0746C39.3653 18.1833 39.1242 18.3014 38.9305 18.4574C38.5193 18.7504 38.2405 19.1143 38.042 19.4499C37.8435 19.7854 37.7253 20.1068 37.6686 20.3714C37.6072 20.6361 37.5788 20.8535 37.5741 21C37.5646 21.1465 37.5599 21.2221 37.5599 21.2221H37.5505ZM37.5505 21.2221C37.5505 21.2221 37.5505 21.1465 37.5552 21C37.5552 20.8535 37.5741 20.6361 37.6308 20.3667C37.6781 20.0973 37.7915 19.776 37.9522 19.4168C38.1223 19.0623 38.3823 18.6795 38.7603 18.3156C39.1431 17.9612 39.6583 17.6303 40.3719 17.5169C41.0383 17.3988 41.8842 17.55 42.5884 17.9564C43.3021 18.3581 43.9023 18.9725 44.3134 19.6578C44.4268 19.8279 44.5072 20.0075 44.597 20.1871C44.6632 20.3714 44.7482 20.551 44.7955 20.7353C44.8522 20.9197 44.8995 21.1087 44.9278 21.3072C44.9703 21.5104 44.9703 21.6569 44.9892 21.8318C44.9845 22.2335 44.9562 22.5738 44.8522 22.9188C44.8144 23.0936 44.7388 23.2543 44.6773 23.4197C44.5923 23.5757 44.5166 23.7316 44.4127 23.8734C44.0251 24.4547 43.4249 24.9084 42.7018 25.1447C42.3427 25.2723 41.9551 25.3149 41.5581 25.3196C41.4589 25.3196 41.3502 25.3196 41.2604 25.3101C41.1564 25.296 41.1044 25.2912 41.0005 25.2771C40.7925 25.2392 40.6224 25.2062 40.4428 25.1447C39.7386 24.9226 39.2046 24.5445 38.817 24.1664C38.4295 23.7789 38.1649 23.3914 37.9853 23.0322C37.8151 22.673 37.697 22.3469 37.6403 22.0775C37.5788 21.8081 37.5552 21.5907 37.5505 21.449C37.5457 21.3025 37.541 21.2268 37.541 21.2268L37.5505 21.2221Z" fill="black"/>
<path d="M31.1126 22.9377C30.7629 22.9377 28.9339 25.641 28.9434 26.1797C28.9528 26.7138 29.5152 27.1108 30.1911 27.0966C30.5597 27.0919 30.8858 26.9642 31.1126 26.7705C31.3395 26.969 31.6656 27.0919 32.0342 27.0966C32.7148 27.1108 33.2724 26.7138 33.2819 26.1797C33.2913 25.6457 31.4576 22.9377 31.1126 22.9377Z" fill="black"/>
<path d="M31.4683 32.2101C31.1847 32.2101 31.043 32.2101 30.7594 32.2101C29.9749 32.2196 29.3038 31.8699 29.266 31.3358C29.1951 30.3245 29.1667 29.7762 29.1289 28.6184C30.7169 28.5427 31.5108 28.5427 33.1035 28.6184C33.0657 29.7762 33.0373 30.3245 32.9664 31.3358C32.9286 31.8699 32.2575 32.2196 31.473 32.2101H31.4683Z" fill="#FFF9BB"/>
<path d="M33.099 28.6231C33.099 28.6231 33.151 28.779 33.2171 29.0484C33.2833 29.3178 33.3589 29.6959 33.4109 30.1307C33.4392 30.3481 33.4676 30.5844 33.477 30.8254C33.4818 30.9436 33.4865 31.0664 33.4912 31.194C33.4912 31.3216 33.5149 31.4209 33.4534 31.6288C33.3447 31.9691 33.0139 32.2574 32.546 32.4228C32.3144 32.5032 32.0545 32.5646 31.7804 32.5835C31.7142 32.5882 31.6433 32.5929 31.5772 32.5929C31.5063 32.5929 31.4354 32.5929 31.3976 32.5929C31.2842 32.5929 31.2227 32.5929 31.1093 32.5929C30.9959 32.5929 30.9344 32.5929 30.821 32.5929C30.6556 32.5929 30.6462 32.5929 30.4477 32.5835C30.1546 32.5599 29.9089 32.5079 29.6726 32.4228C29.2047 32.2574 28.8739 31.9644 28.7652 31.6336C28.7368 31.5532 28.7274 31.4634 28.7227 31.3831C28.7227 31.3216 28.7227 31.2602 28.7227 31.194C28.7274 31.0712 28.7321 30.9483 28.7368 30.8254C28.751 30.5844 28.7794 30.3528 28.803 30.1307C28.855 29.6959 28.9306 29.3178 28.9968 29.0484C29.0629 28.779 29.1149 28.6231 29.1149 28.6231C29.1149 28.6231 29.1811 28.7743 29.2662 29.0342C29.3512 29.2942 29.4599 29.6628 29.5544 30.0881C29.6064 30.3008 29.6584 30.5277 29.7009 30.764C29.7198 30.8821 29.7435 31.0003 29.7624 31.1232C29.7718 31.1846 29.7813 31.246 29.7907 31.3075C29.8002 31.35 29.8144 31.3878 29.8333 31.4209C29.9089 31.5674 30.0696 31.6855 30.2728 31.7564C30.5044 31.8273 30.6131 31.8273 31.0999 31.8226C31.218 31.8226 31.2794 31.8226 31.4023 31.8226C31.459 31.8226 31.4874 31.8226 31.5157 31.8226C31.5441 31.8226 31.5725 31.8226 31.6008 31.8226C31.7142 31.8132 31.8277 31.7942 31.9269 31.7612C32.1301 31.695 32.2955 31.5674 32.3664 31.4256C32.4042 31.3925 32.4137 31.2413 32.4373 31.1232C32.4609 31.0003 32.4799 30.8821 32.4988 30.764C32.5413 30.5277 32.5933 30.3008 32.6453 30.0881C32.7398 29.6628 32.8485 29.2942 32.9336 29.0342C33.0186 28.7743 33.0801 28.6231 33.0801 28.6231H33.099Z" fill="black"/>
<path d="M35.1711 32.5599C34.8922 32.5126 34.7504 32.489 34.4669 32.4464C33.6918 32.333 33.0963 31.884 33.1389 31.35C33.2192 30.3339 33.2476 29.7857 33.2901 28.6278C34.878 28.7129 35.6673 28.7932 37.2883 29.0106C37.156 30.2158 37.0709 30.7876 36.8252 31.851C36.6976 32.4134 35.9414 32.6875 35.1663 32.5551L35.1711 32.5599Z" fill="#FFF9BB"/>
<path d="M37.2948 29.0153C37.2948 29.0153 37.3374 29.1855 37.3799 29.469C37.4224 29.7573 37.465 30.159 37.465 30.6269C37.465 30.8585 37.465 31.109 37.4413 31.3689C37.4272 31.4965 37.4177 31.6288 37.3988 31.7612C37.3752 31.8982 37.3846 32.0069 37.2854 32.2243C37.1152 32.574 36.7135 32.8387 36.2126 32.9427C35.9621 32.9947 35.6927 33.0136 35.4186 32.9899C35.3524 32.9852 35.2815 32.9805 35.2154 32.9663C35.1445 32.9569 35.0736 32.9474 35.0358 32.938C34.9224 32.9191 34.8657 32.9096 34.7475 32.8907C34.6341 32.8718 34.5774 32.8623 34.4592 32.8434C34.2938 32.8151 34.2843 32.8151 34.0906 32.7725C33.807 32.7017 33.5754 32.6071 33.358 32.4843C32.928 32.248 32.6586 31.9077 32.6066 31.5674C32.5924 31.4823 32.5972 31.3973 32.6066 31.3169C32.6161 31.2555 32.6255 31.194 32.6397 31.1326C32.6633 31.0097 32.6822 30.8916 32.7059 30.7734C32.7484 30.5371 32.8051 30.3103 32.8571 30.0976C32.9563 29.6723 33.065 29.3036 33.1548 29.0437C33.2399 28.7838 33.3061 28.6325 33.3061 28.6325C33.3061 28.6325 33.358 28.7885 33.4242 29.0579C33.4856 29.3273 33.566 29.7053 33.6133 30.1449C33.6416 30.3623 33.6652 30.5986 33.6794 30.8396C33.6841 30.9625 33.6889 31.0853 33.6936 31.2082C33.6936 31.2697 33.6936 31.3311 33.6936 31.3973C33.6936 31.4398 33.703 31.4776 33.7172 31.5201C33.7692 31.6761 33.9063 31.8226 34.0953 31.9219C34.3127 32.0306 34.4214 32.0447 34.9035 32.1109C35.0216 32.1298 35.083 32.1393 35.2012 32.1582C35.2579 32.1676 35.2863 32.1723 35.3146 32.1771C35.343 32.1818 35.3713 32.1818 35.3997 32.1865C35.5131 32.1912 35.6313 32.1865 35.74 32.1676C35.9574 32.1251 36.1417 32.0164 36.2409 31.8793C36.2835 31.851 36.3213 31.6903 36.3638 31.5721C36.4063 31.4493 36.4441 31.3264 36.482 31.2035C36.5576 30.9625 36.6426 30.7309 36.7183 30.5135C36.8648 30.0787 37.0113 29.7053 37.12 29.4407C37.2287 29.176 37.3043 29.0248 37.3043 29.0248L37.2948 29.0153Z" fill="black"/>
<path d="M27.0489 32.5599C27.3277 32.5126 27.4695 32.489 27.7531 32.4464C28.5282 32.333 29.1236 31.884 29.0811 31.35C29.0008 30.3339 28.9724 29.7857 28.9299 28.6278C27.3419 28.7129 26.5527 28.7932 24.9316 29.0106C25.064 30.2158 25.149 30.7876 25.3948 31.851C25.5224 32.4134 26.2786 32.6875 27.0536 32.5551L27.0489 32.5599Z" fill="#FFF9BB"/>
<path d="M24.9322 29.0153C24.9322 29.0153 25.0078 29.1666 25.1165 29.4312C25.2252 29.6959 25.3717 30.0692 25.5182 30.504C25.5938 30.7214 25.6789 30.953 25.7545 31.194C25.7923 31.3169 25.8301 31.4398 25.8727 31.5627C25.9152 31.6808 25.953 31.8415 25.9955 31.8699C26.0948 32.0069 26.2791 32.1156 26.4965 32.1582C26.6052 32.1818 26.7186 32.1818 26.8368 32.1771C26.8651 32.1771 26.8935 32.1771 26.9218 32.1676C26.9502 32.1676 26.9738 32.1629 27.0353 32.1487C27.1534 32.1298 27.2148 32.1203 27.333 32.1014C27.8151 32.0353 27.9237 32.0211 28.1411 31.9124C28.3302 31.8131 28.472 31.6666 28.5192 31.5107C28.5334 31.4729 28.5381 31.4351 28.5429 31.3878C28.5429 31.3264 28.5429 31.2649 28.5429 31.1988C28.5429 31.0759 28.5523 30.953 28.557 30.8301C28.5712 30.5891 28.5948 30.3528 28.6232 30.1354C28.6705 29.6959 28.7508 29.3178 28.8122 29.0484C28.8737 28.779 28.9304 28.6231 28.9304 28.6231C28.9304 28.6231 28.9966 28.7743 29.0816 29.0342C29.1667 29.2942 29.2801 29.6628 29.3794 30.0881C29.4314 30.3008 29.4833 30.5277 29.5306 30.764C29.5542 30.8821 29.5731 31.0003 29.5968 31.1231C29.6062 31.1846 29.6157 31.246 29.6298 31.3075C29.6393 31.3878 29.6393 31.4729 29.6298 31.5579C29.5779 31.8982 29.3038 32.2385 28.8784 32.4748C28.661 32.5929 28.4342 32.6922 28.1459 32.7631C27.9521 32.8103 27.9427 32.8056 27.7772 32.834C27.6638 32.8529 27.6071 32.8623 27.489 32.8812C27.3755 32.9001 27.3188 32.9096 27.2007 32.9285C27.1629 32.9379 27.092 32.9474 27.0211 32.9569C26.9549 32.9663 26.884 32.9758 26.8179 32.9805C26.5437 33.0041 26.2696 32.9852 26.0239 32.9332C25.5229 32.8292 25.1212 32.5646 24.9511 32.2149C24.8518 32.0022 24.8566 31.8888 24.8376 31.7517C24.8235 31.6194 24.8093 31.4871 24.7951 31.3595C24.7715 31.0995 24.7715 30.849 24.7715 30.6175C24.7715 30.1496 24.814 29.7479 24.8566 29.4596C24.8991 29.1713 24.9416 29.0059 24.9416 29.0059L24.9322 29.0153Z" fill="black"/>
<path d="M25.7783 6.43907C26.5061 8.19243 26.8417 9.07147 27.5269 10.8107C27.4561 10.7398 27.423 10.702 27.3521 10.6311C29.3323 11.9827 30.3153 12.6585 32.3239 14.0149C30.1121 12.9515 29.0204 12.427 26.8322 11.3825C26.7991 11.3683 26.785 11.3589 26.7519 11.3447C26.7141 11.288 26.6952 11.2596 26.6574 11.2076C25.5987 9.6386 25.0789 8.83517 23.9824 7.25195C24.6961 6.92585 25.0552 6.76517 25.7689 6.4438L25.7783 6.43907Z" fill="black"/>
<path d="M27.6907 11.08C27.1992 12.6396 26.9487 13.4194 26.4336 14.9601C26.4619 13.3674 26.4809 12.5593 26.495 10.9335C26.9724 10.9902 27.2134 11.0186 27.6907 11.0753V11.08Z" fill="black"/>
<path d="M27.1581 12.5924C26.2318 13.1831 25.7686 13.4761 24.8281 14.0763C25.5512 13.2682 25.9057 12.8712 26.6146 12.063C26.832 12.2757 26.9407 12.3844 27.1581 12.5924Z" fill="black"/>
<path d="M38.0497 21.0189C38.0497 21.0189 38.0686 21.0898 38.097 21.2174C38.1112 21.2788 38.1206 21.3544 38.1537 21.4395C38.1821 21.5246 38.2057 21.6191 38.2435 21.7183C38.286 21.8176 38.3144 21.931 38.3711 22.0444C38.4231 22.1579 38.4751 22.276 38.546 22.3942C38.6027 22.517 38.6925 22.6305 38.7681 22.7533C38.8579 22.8715 38.9382 22.9944 39.0469 23.1031C39.1415 23.2212 39.2549 23.3252 39.3636 23.4292C39.4865 23.5237 39.5904 23.6324 39.718 23.7175C39.8362 23.8073 39.9685 23.8829 40.0867 23.9585C40.2143 24.0199 40.3277 24.0955 40.4458 24.1428C40.6774 24.2515 40.8854 24.3271 41.0366 24.3696C41.1878 24.4122 41.2729 24.4405 41.2729 24.4405C41.2729 24.4405 41.1831 24.4405 41.0271 24.4264C40.9468 24.4264 40.8523 24.4027 40.7436 24.3838C40.6302 24.3696 40.512 24.3318 40.375 24.294C40.2379 24.2562 40.1056 24.1948 39.9591 24.1381C39.822 24.0672 39.666 23.9963 39.529 23.9018C39.3825 23.8167 39.2502 23.7127 39.1131 23.604C38.9902 23.4906 38.8579 23.3772 38.7539 23.2496C38.6405 23.1267 38.5507 22.9944 38.4609 22.8668C38.3806 22.7344 38.3002 22.6021 38.2482 22.4698C38.1821 22.3422 38.1443 22.2099 38.1112 22.087C38.0686 21.9641 38.0592 21.8459 38.0403 21.7372C38.0214 21.6285 38.0261 21.5293 38.0214 21.4395C38.0167 21.3497 38.0214 21.2788 38.0308 21.2127C38.0403 21.0898 38.0545 21.0189 38.0545 21.0189H38.0497Z" fill="white"/>
<path d="M64.2798 25.2109V26.7657C64.2798 29.5163 62.9848 30.8916 60.3902 30.8916H58.2919C55.702 30.8916 54.4023 29.5163 54.4023 26.7657V10.7398C54.4023 7.98921 55.6973 6.61394 58.2919 6.61394H60.3902C62.9801 6.61394 64.2798 7.98921 64.2798 10.7398V13.4761H61.033V10.9761C61.033 10.0309 60.5462 9.55826 59.5774 9.55826H58.9346C58.0792 9.55826 57.6491 10.0309 57.6491 10.9761V26.5294C57.6491 27.4747 58.0792 27.9473 58.9346 27.9473H59.7475C60.6029 27.9473 61.033 27.4747 61.033 26.5294V25.2109H64.2798Z" fill="black"/>
<path d="M66.8164 6.61867H72.7334C75.3469 6.61867 76.656 8.0034 76.656 10.7776V17.9801C76.656 20.7306 75.3611 22.1059 72.7665 22.1059H70.0632V30.8963H66.8164V6.61867ZM70.0632 19.1616H72.1237C72.9792 19.1616 73.4092 18.689 73.4092 17.7438V10.9808C73.4092 10.0356 72.9224 9.56299 71.9536 9.56299H70.0585V19.1663L70.0632 19.1616Z" fill="black"/>
<path d="M82.2995 30.8916H79.0527V10.7776C79.0527 8.0034 80.3477 6.61867 82.9423 6.61867H85.3762C87.966 6.61867 89.2657 8.0034 89.2657 10.7776V30.8916H86.0189V22.0019H82.2995V30.8916ZM86.0189 19.0576V10.9808C86.0189 10.0356 85.5463 9.56299 84.6011 9.56299H83.7221C82.7768 9.56299 82.3042 10.0356 82.3042 10.9808V19.0623H86.0236L86.0189 19.0576Z" fill="black"/>
<path d="M95.0789 26.7657V30.8916H91.6289V26.7657H95.0789Z" fill="black"/>
<path d="M97.825 6.61867H104.182C106.663 6.61867 107.901 8.0034 107.901 10.7776V16.7607C107.901 18.878 107.258 20.2202 105.973 20.7826L108.236 30.8916H105.16L103.028 21.0898H101.067V30.8916H97.8203V6.61867H97.825ZM101.072 18.3156H103.203C104.172 18.3156 104.659 17.7296 104.659 16.5575V11.3163C104.659 10.1443 104.172 9.55826 103.203 9.55826H101.072V18.3156Z" fill="black"/>
<path d="M110.605 30.8916V6.61867H113.852V30.8916H110.605Z" fill="black"/>
<path d="M116.891 6.61867H122.808C125.421 6.61867 126.73 8.0034 126.73 10.7776V17.9801C126.73 20.7306 125.435 22.1059 122.841 22.1059H120.137V30.8963H116.891V6.61867ZM120.137 19.1616H122.198C123.053 19.1616 123.483 18.689 123.483 17.7438V10.9808C123.483 10.0356 122.997 9.56299 122.028 9.56299H120.133V19.1663L120.137 19.1616Z" fill="black"/>
<path d="M21.8134 21.5813C22.2702 21.5813 22.6404 21.211 22.6404 20.7542C22.6404 20.2975 22.2702 19.9272 21.8134 19.9272C21.3566 19.9272 20.9863 20.2975 20.9863 20.7542C20.9863 21.211 21.3566 21.5813 21.8134 21.5813Z" fill="black"/>
<path d="M40.4052 21.5813C40.862 21.5813 41.2322 21.211 41.2322 20.7542C41.2322 20.2975 40.862 19.9272 40.4052 19.9272C39.9484 19.9272 39.5781 20.2975 39.5781 20.7542C39.5781 21.211 39.9484 21.5813 40.4052 21.5813Z" fill="black"/>
<path d="M25.6566 17.1483C25.6566 17.1483 25.6471 17.1246 25.633 17.0868C25.6141 17.049 25.6093 16.9781 25.5573 16.9167C25.5148 16.8505 25.4723 16.7796 25.3967 16.6993C25.3352 16.6142 25.236 16.5433 25.1415 16.4535C25.0328 16.3779 24.9288 16.2881 24.7964 16.2078C24.6736 16.1227 24.5318 16.0518 24.39 15.9762C24.2482 15.9006 24.0875 15.8392 23.9316 15.7683C23.7709 15.7068 23.6102 15.6407 23.4401 15.5981C23.1093 15.4847 22.7643 15.428 22.4429 15.3713C22.2775 15.3618 22.1215 15.3335 21.9703 15.3287C21.819 15.3287 21.6725 15.3146 21.5402 15.3146C21.2756 15.324 21.044 15.3287 20.888 15.3524C20.7273 15.3666 20.6328 15.3713 20.6328 15.3713C20.6328 15.3713 20.7132 15.3287 20.8644 15.2626C21.0109 15.187 21.233 15.1114 21.5119 15.0452C21.7907 14.9837 22.1215 14.9459 22.4807 14.9554C22.6556 14.9696 22.8446 14.9743 23.0289 15.0121C23.2132 15.0499 23.4023 15.083 23.5819 15.1444C23.7662 15.1964 23.941 15.272 24.1159 15.3477C24.286 15.4233 24.4467 15.5178 24.6027 15.6123C24.7539 15.7068 24.8957 15.8155 25.0186 15.9242C25.1462 16.0235 25.2454 16.1511 25.3447 16.2598C25.4297 16.3779 25.5101 16.4819 25.5573 16.5953C25.6141 16.6946 25.6424 16.8033 25.6613 16.8883C25.6897 16.9687 25.6613 17.0348 25.6708 17.0774C25.6708 17.1199 25.6708 17.1435 25.6708 17.1435L25.6566 17.1483Z" fill="black"/>
<path d="M36.5731 17.1483C36.5731 17.1483 36.5731 17.1246 36.5731 17.0821C36.5779 17.0396 36.5542 16.9734 36.5826 16.8931C36.6015 16.808 36.6251 16.6993 36.6866 16.6001C36.7338 16.4866 36.8142 16.3827 36.8992 16.2645C36.9937 16.1605 37.093 16.0282 37.2253 15.929C37.3482 15.8155 37.4853 15.7116 37.6412 15.617C37.7924 15.5225 37.9531 15.428 38.128 15.3524C38.3029 15.2768 38.4777 15.2011 38.662 15.1492C38.8416 15.0877 39.0307 15.0546 39.215 15.0168C39.3993 14.979 39.5883 14.9743 39.7632 14.9601C40.1224 14.9507 40.4532 14.9885 40.732 15.0499C41.0061 15.1161 41.2283 15.1917 41.3748 15.2673C41.5213 15.3335 41.6064 15.376 41.6064 15.376C41.6064 15.376 41.5118 15.3666 41.3511 15.3571C41.1952 15.3335 40.9636 15.3288 40.699 15.3193C40.5666 15.3193 40.4201 15.3335 40.2689 15.3335C40.1177 15.3382 39.9617 15.3666 39.7963 15.376C39.4749 15.4327 39.1299 15.4894 38.7991 15.6029C38.629 15.6454 38.4683 15.7116 38.3076 15.773C38.1516 15.8392 37.9909 15.9053 37.8492 15.9809C37.7074 16.0566 37.5656 16.1322 37.4427 16.2125C37.3104 16.2881 37.2064 16.3779 37.0977 16.4583C37.0032 16.5481 36.9039 16.619 36.8425 16.704C36.7669 16.7844 36.7196 16.8553 36.6818 16.9214C36.6346 16.9829 36.6251 17.0538 36.6062 17.0916C36.592 17.1341 36.5826 17.153 36.5826 17.153L36.5731 17.1483Z" fill="black"/>
<path d="M38.2982 13.6226C37.7358 13.6226 37.2773 13.1642 37.2773 12.6018C37.2773 12.0394 37.7358 11.581 38.2982 11.581C38.8606 11.581 39.319 12.0394 39.319 12.6018C39.319 13.1642 38.8606 13.6226 38.2982 13.6226ZM38.2982 12.0489C37.9957 12.0489 37.7499 12.2946 37.7499 12.5971C37.7499 12.8996 37.9957 13.1453 38.2982 13.1453C38.6006 13.1453 38.8464 12.8996 38.8464 12.5971C38.8464 12.2946 38.6006 12.0489 38.2982 12.0489Z" fill="black"/>
<path d="M40.4062 14.0953C40.0139 14.0953 39.6973 13.7786 39.6973 13.3863C39.6973 12.9941 40.0139 12.6774 40.4062 12.6774C40.7984 12.6774 41.1151 12.9941 41.1151 13.3863C41.1151 13.7786 40.7984 14.0953 40.4062 14.0953ZM40.4062 13.1548C40.2786 13.1548 40.1699 13.2587 40.1699 13.3911C40.1699 13.5234 40.2738 13.6274 40.4062 13.6274C40.5385 13.6274 40.6425 13.5234 40.6425 13.3911C40.6425 13.2587 40.5385 13.1548 40.4062 13.1548Z" fill="black"/>
<path d="M17.4794 12.616L19.6864 13.8589L17.1816 13.5139L17.4794 12.616Z" fill="black"/>
</svg>
