<svg width="144" height="32" viewBox="0 0 144 32" fill="none" xmlns="http://www.w3.org/2000/svg">
<path d="M41.9831 5.01285H12.3887V26.625H41.9831V5.01285Z" fill="#21BDBC"/>
<path d="M40.8393 25.7979V5.84936C40.8393 4.97977 40.1351 4.27559 39.2655 4.27559H12.8092C11.9396 4.27559 11.2354 4.97977 11.2354 5.84936V25.7979H9V27.8916H43.0747V25.7979H40.8393ZM28.5469 26.2044H23.5231V25.3915H28.5469V26.2044ZM39.1001 24.3282H12.9746V6.01477H39.1001V24.3282Z" fill="black"/>
<path d="M19.3878 7.5649C18.5088 7.71613 17.6298 7.79648 16.746 7.85319C16.3065 7.88627 15.867 7.89572 15.4274 7.91463C14.9879 7.92881 14.5484 7.92881 14.1089 7.93353L14.4775 7.5649C14.4728 8.00442 14.468 8.44394 14.4586 8.88346C14.4397 9.32299 14.4302 9.76251 14.3972 10.202C14.3452 11.0811 14.2648 11.9601 14.1089 12.8439C13.9576 11.9648 13.8773 11.0858 13.8206 10.202C13.7875 9.76251 13.778 9.32299 13.7591 8.88346C13.7497 8.44394 13.745 8.00442 13.7402 7.5649V7.19154L14.1089 7.19627C14.5484 7.20572 14.9879 7.20572 15.4274 7.21517C15.867 7.23408 16.3065 7.24353 16.746 7.27661C17.625 7.3286 18.5041 7.40894 19.3878 7.5649Z" fill="black"/>
<path d="M44.5494 27.6978C40.9434 27.2394 37.2807 27.2394 33.6748 27.6978C30.2767 28.0948 26.184 26.7904 25.3758 23.8225C24.3928 20.2023 24.2699 18.1229 24.2936 14.0207C24.7 7.14901 31.5811 2.7538 37.9565 2.60729C38.8828 2.59784 39.346 2.59784 40.2723 2.60729C46.6477 2.7538 53.5288 7.14901 53.9353 14.0207C53.9589 18.1229 53.836 20.207 52.853 23.8225C52.0449 26.7904 47.9521 28.0948 44.5541 27.6978H44.5494Z" fill="#FFF9BB"/>
<path d="M45.7629 28.3642C45.3281 28.3642 44.898 28.3406 44.4774 28.2886C40.9234 27.8396 37.2844 27.8396 33.7446 28.2886C33.3192 28.3358 32.8892 28.3642 32.4544 28.3642C29.2359 28.3642 25.6158 27.0078 24.7935 23.9784C23.7632 20.1976 23.6687 18.0378 23.6876 14.0159C24.1318 6.68586 31.2823 2.16305 37.9413 2.00709C38.8865 1.99764 39.3449 1.99764 40.276 2.00709C46.9491 2.16305 54.0949 6.68114 54.5297 13.9829C54.5533 18.0425 54.4541 20.1976 53.4285 23.9784C52.6062 27.0078 48.986 28.3642 45.7676 28.3642H45.7629ZM39.1086 26.7573C40.9471 26.7573 42.7997 26.8755 44.6239 27.1023C44.9925 27.1449 45.3753 27.1685 45.7629 27.1685C48.4378 27.1685 51.6137 26.0721 52.2706 23.6665C53.2584 20.0275 53.3529 17.9338 53.334 14.0207C52.9465 7.5271 46.2449 3.33983 40.2571 3.20278C39.3544 3.19332 38.8818 3.19332 37.9602 3.20278C31.9818 3.33983 25.2755 7.5271 24.888 14.0538C24.8691 17.9338 24.9589 20.0275 25.9513 23.6665C26.6083 26.0721 29.7842 27.1685 32.4591 27.1685C32.8466 27.1685 33.2294 27.1449 33.6028 27.1023C35.4176 26.8708 37.2702 26.7573 39.1086 26.7573Z" fill="black"/>
<path d="M34.3375 18.1417C34.3186 20.8687 32.1635 23.0096 29.3515 23.4207C26.5395 23.8319 23.9119 22.0313 24.0064 18.9972C24.1009 15.963 26.6813 13.2976 29.4508 13.1889C32.2202 13.0802 34.3564 15.4148 34.3375 18.1417Z" fill="#BEE7FB"/>
<path d="M29.3863 23.5767C26.5082 23.9926 23.7907 21.9698 23.8852 19.0113C23.9797 16.0528 26.6169 13.4346 29.4478 13.3212C32.2786 13.2078 34.4763 15.481 34.4573 18.1323C34.4479 19.4603 34.2589 20.8876 33.3467 21.7808C32.4346 22.674 30.823 23.364 29.3863 23.572V23.5767ZM29.3816 14.6917C27.5432 14.7815 25.8134 16.705 25.7614 18.7939C25.7047 20.8828 27.425 22.3054 29.2918 22.0691C31.1586 21.8328 32.6615 20.1645 32.6804 18.2221C32.6993 16.2797 31.2247 14.6019 29.3816 14.6917Z" fill="#FFF9BB"/>
<path d="M29.3485 23.3026C26.4704 23.7185 23.7907 21.9698 23.8852 19.0113C23.9798 16.0528 26.6169 13.4346 29.4478 13.3212C32.2787 13.2078 34.4763 15.481 34.4574 18.1323M29.3816 14.687C27.5432 14.7768 25.8135 16.7003 25.7615 18.7892C25.7048 20.8781 27.425 22.3007 29.2918 22.0644C31.1586 21.8281 32.6615 20.1598 32.6804 18.2174C32.6993 16.275 31.2248 14.5972 29.3816 14.687Z" fill="#FFF9BB"/>
<path d="M29.3471 23.3026C29.3471 23.3026 29.2431 23.3215 29.0493 23.3546C28.8556 23.3924 28.5673 23.4254 28.1939 23.4443C27.83 23.4443 27.3669 23.4444 26.8848 23.3215C26.398 23.2128 25.8545 23.0332 25.363 22.7118C24.8668 22.3999 24.3989 21.9746 24.0586 21.4263C23.7136 20.8828 23.4773 20.2259 23.4301 19.4981C23.4301 19.3091 23.397 19.1437 23.4206 18.931C23.4348 18.7467 23.4301 18.586 23.4679 18.3828C23.5246 17.9763 23.6238 17.5841 23.7751 17.1918C24.0728 16.4073 24.5454 15.6322 25.1598 14.9611C25.7789 14.2947 26.5493 13.7371 27.3905 13.3826C28.2175 13.0187 29.1438 12.8864 29.9331 12.9431C30.7932 12.9904 31.5163 13.2597 32.1212 13.6095C32.7215 13.9592 33.1941 14.4034 33.5296 14.8477C33.8699 15.2967 34.092 15.7409 34.2385 16.1426C34.3047 16.3458 34.3614 16.5349 34.3992 16.7145C34.4276 16.8941 34.4606 17.0548 34.4748 17.206C34.4984 17.5037 34.4984 17.7353 34.4748 17.8913C34.4654 18.0472 34.4606 18.1323 34.4606 18.1323C34.4606 18.1323 34.4465 18.0519 34.4228 17.896C34.4086 17.8204 34.3992 17.7258 34.3756 17.6172C34.3472 17.5085 34.3141 17.3856 34.281 17.2438C34.2432 17.102 34.1818 16.9555 34.1251 16.7901C34.0542 16.6294 33.9786 16.4545 33.8841 16.275C33.6856 15.9158 33.4162 15.5282 33.0665 15.1549C32.712 14.7815 32.2489 14.4365 31.7054 14.1671C31.1666 13.8978 30.5049 13.7323 29.848 13.7182C29.1249 13.6993 28.4302 13.8552 27.7449 14.153C27.0597 14.446 26.4358 14.9186 25.9254 15.4763C25.4056 16.0292 24.9991 16.6767 24.7392 17.343C24.6116 17.6786 24.5171 18.0141 24.4509 18.3308C24.4131 18.4867 24.4036 18.6805 24.38 18.8506C24.3564 18.9972 24.3706 19.172 24.3658 19.328C24.3847 19.966 24.5265 20.5567 24.7864 21.0624C25.0464 21.5681 25.3961 21.9887 25.7978 22.3148C26.1948 22.6457 26.6485 22.863 27.0738 23.019C27.4992 23.1797 27.9056 23.2411 28.2459 23.2837C28.5862 23.312 28.865 23.3309 29.0635 23.312C29.2573 23.3073 29.3612 23.3026 29.3612 23.3026H29.3471Z" fill="black"/>
<path d="M29.3811 14.6917C29.3811 14.6917 29.2866 14.7012 29.107 14.7248C28.9274 14.7532 28.6675 14.8146 28.3509 14.9422C28.039 15.0745 27.6751 15.2919 27.3395 15.6133C27.004 15.93 26.6731 16.3364 26.4416 16.8185C26.2005 17.2958 26.0446 17.8393 26.0209 18.3969C26.0209 18.534 26.0209 18.6805 26.0304 18.8081C26.0493 18.9499 26.0493 19.1106 26.0871 19.2335C26.1391 19.4981 26.2336 19.7675 26.3518 20.0227C26.4746 20.2732 26.6306 20.5189 26.8338 20.7269C27.0229 20.9443 27.2497 21.1333 27.5096 21.2846C27.7648 21.4358 28.0531 21.5539 28.3509 21.6201C28.4265 21.6437 28.5021 21.6532 28.5777 21.6626C28.6533 21.6721 28.729 21.6863 28.8093 21.6815C28.8896 21.6815 28.9653 21.691 29.0409 21.6815C29.0881 21.6815 29.1118 21.6768 29.159 21.6721C29.1827 21.6721 29.1921 21.6721 29.2157 21.6721C29.2252 21.6721 29.2346 21.6721 29.2441 21.6721C29.2488 21.6721 29.2535 21.6721 29.2583 21.6721C29.2583 21.6721 29.2583 21.6721 29.2677 21.6721C29.2535 21.6721 29.3055 21.6674 29.2394 21.6721C29.3575 21.6532 29.4142 21.6437 29.5277 21.6248C29.6269 21.6107 29.6694 21.587 29.7451 21.5681C29.8112 21.5539 29.8868 21.5256 29.9625 21.4972C30.0381 21.4689 30.1137 21.4452 30.1846 21.4074C30.4729 21.2751 30.7422 21.0955 30.988 20.897C31.2338 20.6985 31.4464 20.4717 31.626 20.2259C31.8151 19.9896 31.9616 19.7344 32.0844 19.4745C32.3207 18.9499 32.4436 18.4206 32.4436 17.8865C32.4436 17.3809 32.3255 16.8799 32.1222 16.4545C31.9285 16.0245 31.6402 15.67 31.333 15.4006C31.0258 15.1265 30.6903 14.9517 30.3878 14.8477C30.0853 14.7532 29.8301 14.7154 29.6505 14.7059C29.4709 14.7059 29.3764 14.7012 29.3764 14.7012L29.3811 14.6917ZM29.3811 14.6917C29.3811 14.6917 29.4757 14.6917 29.6553 14.6917C29.8348 14.6965 30.0901 14.7295 30.402 14.8193C30.7092 14.9139 31.0494 15.0887 31.3944 15.3392C31.7347 15.5944 32.0514 15.9441 32.3207 16.36C32.5854 16.7854 32.7886 17.2769 32.8879 17.8393C32.9777 18.3733 32.954 18.9877 32.7697 19.5926C32.5807 20.1976 32.2309 20.812 31.6544 21.346C31.3755 21.6154 31.0305 21.8611 30.6288 22.0549C30.5343 22.1069 30.4256 22.1494 30.3216 22.192C30.2177 22.2345 30.1137 22.277 29.9861 22.3101C29.8727 22.3432 29.7309 22.3857 29.6364 22.4046C29.5229 22.4283 29.4615 22.4377 29.3481 22.4613C29.2772 22.4708 29.3197 22.4613 29.3008 22.4661C29.3008 22.4661 29.2961 22.4661 29.2914 22.4661C29.2819 22.4661 29.2772 22.4661 29.2677 22.4661C29.2488 22.4661 29.2394 22.4661 29.2252 22.4661C29.1921 22.4661 29.1732 22.4661 29.1401 22.4708C29.0692 22.4755 29.0361 22.4802 28.9653 22.485C28.8471 22.4944 28.7337 22.485 28.6203 22.485C28.5068 22.485 28.3934 22.4661 28.2847 22.4519C28.176 22.4377 28.0626 22.4235 27.9633 22.3952C27.7507 22.3526 27.5569 22.277 27.3679 22.2061C27.193 22.1163 27.0134 22.0313 26.8622 21.9178C26.2336 21.4972 25.8461 20.9065 25.6476 20.2921C25.5483 19.9802 25.5011 19.6683 25.4869 19.3374C25.4727 19.172 25.4963 19.0302 25.5011 18.879C25.5153 18.7089 25.5436 18.5624 25.5672 18.4064C25.6948 17.7967 25.9406 17.2296 26.2478 16.7476C26.5597 16.2655 26.9189 15.8638 27.2875 15.5613C27.6609 15.2589 28.0248 15.0509 28.3461 14.9186C28.6675 14.7957 28.9322 14.739 29.1118 14.7154C29.2914 14.6965 29.3859 14.687 29.3859 14.687L29.3811 14.6917Z" fill="black"/>
<path d="M43.8868 18.1418C43.9057 20.8687 46.0608 23.0096 48.8728 23.4207C51.6848 23.8319 54.3125 22.0313 54.218 18.9972C54.1234 15.9631 51.543 13.2976 48.7736 13.1889C46.0041 13.0802 43.8679 15.4148 43.8868 18.1418Z" fill="#BEE7FB"/>
<path d="M44.8803 21.7855C43.9681 20.8923 43.7791 19.4603 43.7697 18.137C43.7507 15.4857 45.9484 13.2125 48.7792 13.3259C51.6101 13.4394 54.2473 16.0576 54.3418 19.0161C54.4363 21.9746 51.7425 23.9831 48.869 23.5673C47.4323 23.3593 45.7924 22.6835 44.8803 21.7903V21.7855ZM45.5514 18.2174C45.5703 20.1598 47.0732 21.8281 48.9399 22.0644C50.8067 22.3007 52.527 20.8781 52.4703 18.7892C52.4136 16.7003 50.6886 14.7816 48.8501 14.687C47.0117 14.5925 45.5325 16.2703 45.5514 18.2174Z" fill="#FFF9BB"/>
<path d="M43.7697 18.137C43.7507 15.4857 45.9484 13.2125 48.7792 13.3259C51.6101 13.4394 54.2473 16.0576 54.3418 19.0161C54.4363 21.9746 51.7567 23.7232 48.8785 23.3073M45.5514 18.2221C45.5703 20.1645 47.0732 21.8328 48.9399 22.0691C50.8067 22.3054 52.527 20.8829 52.4703 18.794C52.4136 16.7051 50.6886 14.7863 48.8501 14.6918C47.0117 14.5972 45.5325 16.275 45.5514 18.2221Z" fill="#FFF9BB"/>
<path d="M43.7685 18.137C43.7685 18.137 43.7637 18.052 43.7543 17.896C43.7354 17.7401 43.7307 17.5085 43.7543 17.2107C43.7637 17.0595 43.8015 16.8988 43.8299 16.7192C43.8677 16.5396 43.9244 16.3506 43.9906 16.1474C44.1371 15.7457 44.3592 15.2967 44.6995 14.8525C45.035 14.4035 45.5029 13.964 46.1078 13.6142C46.7033 13.2598 47.45 12.9951 48.2771 12.9479C48.4898 12.9479 48.6788 12.9195 48.9198 12.9479C49.1183 12.962 49.2979 12.9668 49.5342 13.014C49.6713 13.0377 49.7374 13.0518 49.8745 13.0755C49.9832 13.0991 50.0919 13.1322 50.2006 13.1653C50.418 13.222 50.6259 13.307 50.8386 13.3921C51.6798 13.7418 52.4455 14.3042 53.0693 14.9706C53.6884 15.6417 54.1563 16.4168 54.454 17.2013C54.7565 17.9858 54.851 18.7892 54.799 19.4981C54.7518 20.2307 54.5155 20.8923 54.1705 21.4358C53.8302 21.984 53.3623 22.4094 52.8661 22.7213C52.3746 23.0427 51.8263 23.2175 51.3443 23.331C50.8622 23.4491 50.3991 23.4538 50.0352 23.4538C49.6618 23.4397 49.3735 23.4066 49.1798 23.364C48.986 23.331 48.882 23.3121 48.882 23.3121C48.882 23.3121 48.986 23.3121 49.1798 23.3215C49.3735 23.3357 49.6524 23.3215 49.9974 23.2931C50.3376 23.2459 50.7441 23.1892 51.1694 23.0285C51.5948 22.8725 52.0437 22.6551 52.4455 22.3243C52.8424 21.9982 53.1969 21.5776 53.4568 21.0719C53.712 20.5615 53.8538 19.9802 53.8774 19.3469C53.9011 18.6947 53.764 18.0236 53.5088 17.3525C53.2489 16.6862 52.8424 16.0387 52.3226 15.4857C51.8122 14.9233 51.1883 14.4555 50.5031 14.1625C50.3329 14.0868 50.1628 14.0159 49.9879 13.9687C49.9029 13.9403 49.8131 13.9072 49.728 13.8836C49.6287 13.86 49.5768 13.8505 49.4775 13.8269C49.3263 13.7796 49.1136 13.7655 48.9198 13.7418C48.7686 13.7135 48.5796 13.7324 48.4142 13.7229C47.7289 13.7371 47.0861 13.9072 46.5379 14.1719C45.9944 14.4413 45.5313 14.7863 45.1768 15.1596C44.8271 15.5377 44.553 15.9205 44.3592 16.2797C44.2694 16.464 44.1891 16.6342 44.1182 16.7949C44.0615 16.9603 43.9953 17.1115 43.9622 17.2486C43.9244 17.3903 43.8961 17.5132 43.8677 17.6219C43.8441 17.7306 43.8346 17.8299 43.8204 17.9055C43.7968 18.0614 43.7826 18.1418 43.7826 18.1418L43.7685 18.137Z" fill="black"/>
<path d="M45.5505 18.2221C45.5505 18.2221 45.5552 18.3025 45.5694 18.449C45.5788 18.5955 45.6072 18.8081 45.6781 19.0775C45.7395 19.3469 45.8624 19.6683 46.0703 20.0133C46.2783 20.3583 46.5618 20.7316 46.9825 21.0625C47.1857 21.2326 47.4267 21.3838 47.6866 21.5209C47.956 21.6438 48.2396 21.7619 48.5468 21.8139C48.6933 21.847 48.8634 21.8612 48.9957 21.8706C49.0997 21.8706 49.1517 21.8706 49.2557 21.8753C49.336 21.8753 49.4022 21.8612 49.4731 21.8564C49.7614 21.8186 50.0686 21.743 50.3285 21.6107C50.8578 21.3555 51.2831 20.9349 51.562 20.4339C51.8361 19.9377 51.9779 19.328 51.959 18.7562C51.9448 18.5955 51.9495 18.4064 51.9164 18.2694C51.8975 18.1276 51.8692 17.9764 51.8266 17.8251C51.7463 17.5227 51.6281 17.2202 51.4816 16.9319C51.1886 16.3601 50.7538 15.8307 50.2245 15.4574C49.6952 15.0793 49.0761 14.8714 48.457 14.9044C48.1781 14.9044 47.8804 14.9848 47.6205 15.0746C47.3653 15.1833 47.1242 15.3014 46.9305 15.4574C46.5193 15.7504 46.2405 16.1143 46.042 16.4499C45.8435 16.7854 45.7253 17.1068 45.6686 17.3714C45.6072 17.6361 45.5788 17.8535 45.5741 18C45.5646 18.1465 45.5599 18.2221 45.5599 18.2221H45.5505ZM45.5505 18.2221C45.5505 18.2221 45.5505 18.1465 45.5552 18C45.5552 17.8535 45.5741 17.6361 45.6308 17.3667C45.6781 17.0973 45.7915 16.776 45.9522 16.4168C46.1223 16.0623 46.3823 15.6795 46.7603 15.3156C47.1431 14.9612 47.6583 14.6303 48.3719 14.5169C49.0383 14.3988 49.8842 14.55 50.5884 14.9564C51.3021 15.3581 51.9023 15.9725 52.3134 16.6578C52.4268 16.8279 52.5072 17.0075 52.597 17.1871C52.6632 17.3714 52.7482 17.551 52.7955 17.7353C52.8522 17.9197 52.8995 18.1087 52.9278 18.3072C52.9703 18.5104 52.9703 18.6569 52.9892 18.8318C52.9845 19.2335 52.9562 19.5738 52.8522 19.9188C52.8144 20.0936 52.7388 20.2543 52.6773 20.4197C52.5923 20.5757 52.5166 20.7316 52.4127 20.8734C52.0251 21.4547 51.4249 21.9084 50.7018 22.1447C50.3427 22.2723 49.9551 22.3149 49.5581 22.3196C49.4589 22.3196 49.3502 22.3196 49.2604 22.3101C49.1564 22.296 49.1044 22.2912 49.0005 22.2771C48.7925 22.2392 48.6224 22.2062 48.4428 22.1447C47.7386 21.9226 47.2046 21.5445 46.817 21.1664C46.4295 20.7789 46.1649 20.3914 45.9853 20.0322C45.8151 19.673 45.697 19.3469 45.6403 19.0775C45.5788 18.8081 45.5552 18.5907 45.5505 18.449C45.5457 18.3025 45.541 18.2268 45.541 18.2268L45.5505 18.2221Z" fill="black"/>
<path d="M39.1126 19.9377C38.7629 19.9377 36.9339 22.641 36.9434 23.1797C36.9528 23.7138 37.5152 24.1108 38.1911 24.0966C38.5597 24.0919 38.8858 23.9642 39.1126 23.7705C39.3395 23.969 39.6656 24.0919 40.0342 24.0966C40.7148 24.1108 41.2724 23.7138 41.2819 23.1797C41.2913 22.6457 39.4576 19.9377 39.1126 19.9377Z" fill="black"/>
<path d="M39.4683 29.2101C39.1847 29.2101 39.043 29.2101 38.7594 29.2101C37.9749 29.2196 37.3038 28.8699 37.266 28.3358C37.1951 27.3245 37.1667 26.7762 37.1289 25.6184C38.7169 25.5427 39.5108 25.5427 41.1035 25.6184C41.0657 26.7762 41.0373 27.3245 40.9664 28.3358C40.9286 28.8699 40.2575 29.2196 39.473 29.2101H39.4683Z" fill="#FFF9BB"/>
<path d="M41.099 25.6231C41.099 25.6231 41.151 25.779 41.2171 26.0484C41.2833 26.3178 41.3589 26.6959 41.4109 27.1307C41.4392 27.3481 41.4676 27.5844 41.477 27.8254C41.4818 27.9436 41.4865 28.0664 41.4912 28.194C41.4912 28.3216 41.5149 28.4209 41.4534 28.6288C41.3447 28.9691 41.0139 29.2574 40.546 29.4228C40.3144 29.5032 40.0545 29.5646 39.7804 29.5835C39.7142 29.5882 39.6433 29.5929 39.5772 29.5929C39.5063 29.5929 39.4354 29.5929 39.3976 29.5929C39.2842 29.5929 39.2227 29.5929 39.1093 29.5929C38.9959 29.5929 38.9344 29.5929 38.821 29.5929C38.6556 29.5929 38.6462 29.5929 38.4477 29.5835C38.1546 29.5599 37.9089 29.5079 37.6726 29.4228C37.2047 29.2574 36.8739 28.9644 36.7652 28.6336C36.7368 28.5532 36.7274 28.4634 36.7227 28.3831C36.7227 28.3216 36.7227 28.2602 36.7227 28.194C36.7274 28.0712 36.7321 27.9483 36.7368 27.8254C36.751 27.5844 36.7794 27.3528 36.803 27.1307C36.855 26.6959 36.9306 26.3178 36.9968 26.0484C37.0629 25.779 37.1149 25.6231 37.1149 25.6231C37.1149 25.6231 37.1811 25.7743 37.2662 26.0342C37.3512 26.2942 37.4599 26.6628 37.5544 27.0881C37.6064 27.3008 37.6584 27.5277 37.7009 27.764C37.7198 27.8821 37.7435 28.0003 37.7624 28.1232C37.7718 28.1846 37.7813 28.246 37.7907 28.3075C37.8002 28.35 37.8144 28.3878 37.8333 28.4209C37.9089 28.5674 38.0696 28.6855 38.2728 28.7564C38.5044 28.8273 38.6131 28.8273 39.0999 28.8226C39.218 28.8226 39.2794 28.8226 39.4023 28.8226C39.459 28.8226 39.4874 28.8226 39.5157 28.8226C39.5441 28.8226 39.5725 28.8226 39.6008 28.8226C39.7142 28.8132 39.8277 28.7942 39.9269 28.7612C40.1301 28.695 40.2955 28.5674 40.3664 28.4256C40.4042 28.3925 40.4137 28.2413 40.4373 28.1232C40.4609 28.0003 40.4799 27.8821 40.4988 27.764C40.5413 27.5277 40.5933 27.3008 40.6453 27.0881C40.7398 26.6628 40.8485 26.2942 40.9336 26.0342C41.0186 25.7743 41.0801 25.6231 41.0801 25.6231H41.099Z" fill="black"/>
<path d="M43.1711 29.5599C42.8922 29.5126 42.7504 29.489 42.4669 29.4464C41.6918 29.333 41.0963 28.884 41.1389 28.35C41.2192 27.3339 41.2476 26.7857 41.2901 25.6278C42.878 25.7129 43.6673 25.7932 45.2883 26.0106C45.156 27.2158 45.0709 27.7876 44.8252 28.851C44.6976 29.4134 43.9414 29.6875 43.1663 29.5551L43.1711 29.5599Z" fill="#FFF9BB"/>
<path d="M45.2948 26.0153C45.2948 26.0153 45.3374 26.1855 45.3799 26.469C45.4224 26.7573 45.465 27.159 45.465 27.6269C45.465 27.8585 45.465 28.109 45.4413 28.3689C45.4272 28.4965 45.4177 28.6288 45.3988 28.7612C45.3752 28.8982 45.3846 29.0069 45.2854 29.2243C45.1152 29.574 44.7135 29.8387 44.2126 29.9427C43.9621 29.9947 43.6927 30.0136 43.4186 29.9899C43.3524 29.9852 43.2815 29.9805 43.2154 29.9663C43.1445 29.9569 43.0736 29.9474 43.0358 29.938C42.9224 29.9191 42.8657 29.9096 42.7475 29.8907C42.6341 29.8718 42.5774 29.8623 42.4592 29.8434C42.2938 29.8151 42.2843 29.8151 42.0906 29.7725C41.807 29.7017 41.5754 29.6071 41.358 29.4843C40.928 29.248 40.6586 28.9077 40.6066 28.5674C40.5924 28.4823 40.5972 28.3973 40.6066 28.3169C40.6161 28.2555 40.6255 28.194 40.6397 28.1326C40.6633 28.0097 40.6822 27.8916 40.7059 27.7734C40.7484 27.5371 40.8051 27.3103 40.8571 27.0976C40.9563 26.6723 41.065 26.3036 41.1548 26.0437C41.2399 25.7838 41.3061 25.6325 41.3061 25.6325C41.3061 25.6325 41.358 25.7885 41.4242 26.0579C41.4856 26.3273 41.566 26.7053 41.6133 27.1449C41.6416 27.3623 41.6652 27.5986 41.6794 27.8396C41.6841 27.9625 41.6889 28.0853 41.6936 28.2082C41.6936 28.2697 41.6936 28.3311 41.6936 28.3973C41.6936 28.4398 41.703 28.4776 41.7172 28.5201C41.7692 28.6761 41.9063 28.8226 42.0953 28.9219C42.3127 29.0306 42.4214 29.0447 42.9035 29.1109C43.0216 29.1298 43.083 29.1393 43.2012 29.1582C43.2579 29.1676 43.2863 29.1723 43.3146 29.1771C43.343 29.1818 43.3713 29.1818 43.3997 29.1865C43.5131 29.1912 43.6313 29.1865 43.74 29.1676C43.9574 29.1251 44.1417 29.0164 44.2409 28.8793C44.2835 28.851 44.3213 28.6903 44.3638 28.5721C44.4063 28.4493 44.4441 28.3264 44.482 28.2035C44.5576 27.9625 44.6426 27.7309 44.7183 27.5135C44.8648 27.0787 45.0113 26.7053 45.12 26.4407C45.2287 26.176 45.3043 26.0248 45.3043 26.0248L45.2948 26.0153Z" fill="black"/>
<path d="M35.0489 29.5599C35.3277 29.5126 35.4695 29.489 35.7531 29.4464C36.5282 29.333 37.1236 28.884 37.0811 28.35C37.0008 27.3339 36.9724 26.7857 36.9299 25.6278C35.3419 25.7129 34.5527 25.7932 32.9316 26.0106C33.064 27.2158 33.149 27.7876 33.3948 28.851C33.5224 29.4134 34.2786 29.6875 35.0536 29.5551L35.0489 29.5599Z" fill="#FFF9BB"/>
<path d="M32.9322 26.0153C32.9322 26.0153 33.0078 26.1666 33.1165 26.4312C33.2252 26.6959 33.3717 27.0692 33.5182 27.504C33.5938 27.7214 33.6789 27.953 33.7545 28.194C33.7923 28.3169 33.8301 28.4398 33.8727 28.5627C33.9152 28.6808 33.953 28.8415 33.9955 28.8699C34.0948 29.0069 34.2791 29.1156 34.4965 29.1582C34.6052 29.1818 34.7186 29.1818 34.8368 29.1771C34.8651 29.1771 34.8935 29.1771 34.9218 29.1676C34.9502 29.1676 34.9738 29.1629 35.0353 29.1487C35.1534 29.1298 35.2148 29.1203 35.333 29.1014C35.8151 29.0353 35.9238 29.0211 36.1411 28.9124C36.3302 28.8131 36.472 28.6666 36.5192 28.5107C36.5334 28.4729 36.5381 28.4351 36.5429 28.3878C36.5429 28.3264 36.5429 28.2649 36.5429 28.1988C36.5429 28.0759 36.5523 27.953 36.557 27.8301C36.5712 27.5891 36.5948 27.3528 36.6232 27.1354C36.6705 26.6959 36.7508 26.3178 36.8122 26.0484C36.8737 25.779 36.9304 25.6231 36.9304 25.6231C36.9304 25.6231 36.9966 25.7743 37.0816 26.0342C37.1667 26.2942 37.2801 26.6628 37.3794 27.0881C37.4314 27.3008 37.4833 27.5277 37.5306 27.764C37.5542 27.8821 37.5731 28.0003 37.5968 28.1231C37.6062 28.1846 37.6157 28.246 37.6298 28.3075C37.6393 28.3878 37.6393 28.4729 37.6298 28.5579C37.5779 28.8982 37.3038 29.2385 36.8784 29.4748C36.661 29.5929 36.4342 29.6922 36.1459 29.7631C35.9521 29.8103 35.9427 29.8056 35.7772 29.834C35.6638 29.8529 35.6071 29.8623 35.489 29.8812C35.3755 29.9001 35.3188 29.9096 35.2007 29.9285C35.1629 29.9379 35.092 29.9474 35.0211 29.9569C34.9549 29.9663 34.884 29.9758 34.8179 29.9805C34.5437 30.0041 34.2696 29.9852 34.0239 29.9332C33.5229 29.8292 33.1212 29.5646 32.9511 29.2149C32.8518 29.0022 32.8566 28.8888 32.8376 28.7517C32.8235 28.6194 32.8093 28.4871 32.7951 28.3595C32.7715 28.0995 32.7715 27.849 32.7715 27.6175C32.7715 27.1496 32.814 26.7479 32.8566 26.4596C32.8991 26.1713 32.9416 26.0059 32.9416 26.0059L32.9322 26.0153Z" fill="black"/>
<path d="M33.7783 3.43907C34.5061 5.19243 34.8417 6.07147 35.5269 7.81065C35.4561 7.73976 35.423 7.70196 35.3521 7.63106C37.3323 8.98271 38.3153 9.65853 40.3239 11.0149C38.1121 9.95155 37.0204 9.42696 34.8322 8.3825C34.7991 8.36833 34.785 8.35887 34.7519 8.3447C34.7141 8.28798 34.6952 8.25963 34.6574 8.20764C33.5987 6.6386 33.0789 5.83517 31.9824 4.25195C32.6961 3.92585 33.0552 3.76517 33.7689 3.4438L33.7783 3.43907Z" fill="black"/>
<path d="M35.6907 8.08004C35.1992 9.63963 34.9487 10.4194 34.4336 11.9601C34.4619 10.3674 34.4809 9.55929 34.495 7.93353C34.9724 7.99025 35.2134 8.0186 35.6907 8.07531V8.08004Z" fill="black"/>
<path d="M35.1581 9.59237C34.2318 10.1831 33.7686 10.4761 32.8281 11.0763C33.5512 10.2682 33.9057 9.8712 34.6146 9.06305C34.832 9.27572 34.9407 9.38442 35.1581 9.59237Z" fill="black"/>
<path d="M46.0497 18.0189C46.0497 18.0189 46.0686 18.0898 46.097 18.2174C46.1112 18.2788 46.1206 18.3544 46.1537 18.4395C46.1821 18.5246 46.2057 18.6191 46.2435 18.7183C46.286 18.8176 46.3144 18.931 46.3711 19.0444C46.4231 19.1579 46.4751 19.276 46.546 19.3942C46.6027 19.517 46.6925 19.6305 46.7681 19.7533C46.8579 19.8715 46.9382 19.9944 47.0469 20.1031C47.1415 20.2212 47.2549 20.3252 47.3636 20.4292C47.4865 20.5237 47.5904 20.6324 47.718 20.7175C47.8362 20.8073 47.9685 20.8829 48.0867 20.9585C48.2143 21.0199 48.3277 21.0955 48.4458 21.1428C48.6774 21.2515 48.8854 21.3271 49.0366 21.3696C49.1878 21.4122 49.2729 21.4405 49.2729 21.4405C49.2729 21.4405 49.1831 21.4405 49.0271 21.4264C48.9468 21.4264 48.8523 21.4027 48.7436 21.3838C48.6302 21.3696 48.512 21.3318 48.375 21.294C48.2379 21.2562 48.1056 21.1948 47.9591 21.1381C47.822 21.0672 47.666 20.9963 47.529 20.9018C47.3825 20.8167 47.2502 20.7127 47.1131 20.604C46.9902 20.4906 46.8579 20.3772 46.7539 20.2496C46.6405 20.1267 46.5507 19.9944 46.4609 19.8668C46.3806 19.7344 46.3002 19.6021 46.2482 19.4698C46.1821 19.3422 46.1443 19.2099 46.1112 19.087C46.0686 18.9641 46.0592 18.8459 46.0403 18.7372C46.0214 18.6285 46.0261 18.5293 46.0214 18.4395C46.0167 18.3497 46.0214 18.2788 46.0308 18.2127C46.0403 18.0898 46.0545 18.0189 46.0545 18.0189H46.0497Z" fill="white"/>
<path d="M72.2798 22.2109V23.7657C72.2798 26.5163 70.9848 27.8916 68.3902 27.8916H66.2919C63.702 27.8916 62.4023 26.5163 62.4023 23.7657V7.73977C62.4023 4.98921 63.6973 3.61394 66.2919 3.61394H68.3902C70.9801 3.61394 72.2798 4.98921 72.2798 7.73977V10.4761H69.033V7.97607C69.033 7.03086 68.5462 6.55826 67.5774 6.55826H66.9346C66.0792 6.55826 65.6491 7.03086 65.6491 7.97607V23.5294C65.6491 24.4747 66.0792 24.9473 66.9346 24.9473H67.7475C68.6029 24.9473 69.033 24.4747 69.033 23.5294V22.2109H72.2798Z" fill="black"/>
<path d="M74.8164 3.61867H80.7334C83.3469 3.61867 84.656 5.0034 84.656 7.77758V14.9801C84.656 17.7306 83.3611 19.1059 80.7665 19.1059H78.0632V27.8963H74.8164V3.61867ZM78.0632 16.1616H80.1237C80.9792 16.1616 81.4092 15.689 81.4092 14.7438V7.9808C81.4092 7.03559 80.9224 6.56299 79.9536 6.56299H78.0585V16.1663L78.0632 16.1616Z" fill="black"/>
<path d="M90.2995 27.8916H87.0527V7.77758C87.0527 5.0034 88.3477 3.61867 90.9423 3.61867H93.3762C95.966 3.61867 97.2657 5.0034 97.2657 7.77758V27.8916H94.0189V19.0019H90.2995V27.8916ZM94.0189 16.0576V7.9808C94.0189 7.03559 93.5463 6.56299 92.6011 6.56299H91.7221C90.7768 6.56299 90.3042 7.03559 90.3042 7.9808V16.0623H94.0236L94.0189 16.0576Z" fill="black"/>
<path d="M103.079 23.7657V27.8916H99.6289V23.7657H103.079Z" fill="black"/>
<path d="M105.825 3.61867H112.182C114.663 3.61867 115.901 5.0034 115.901 7.77758V13.7607C115.901 15.878 115.258 17.2202 113.973 17.7826L116.236 27.8916H113.16L111.028 18.0898H109.067V27.8916H105.82V3.61867H105.825ZM109.072 15.3156H111.203C112.172 15.3156 112.659 14.7296 112.659 13.5575V8.31635C112.659 7.14429 112.172 6.55826 111.203 6.55826H109.072V15.3156Z" fill="black"/>
<path d="M118.605 27.8916V3.61867H121.852V27.8916H118.605Z" fill="black"/>
<path d="M124.891 3.61867H130.808C133.421 3.61867 134.73 5.0034 134.73 7.77758V14.9801C134.73 17.7306 133.435 19.1059 130.841 19.1059H128.137V27.8963H124.891V3.61867ZM128.137 16.1616H130.198C131.053 16.1616 131.483 15.689 131.483 14.7438V7.9808C131.483 7.03559 130.997 6.56299 130.028 6.56299H128.133V16.1663L128.137 16.1616Z" fill="black"/>
<path d="M29.8134 18.5813C30.2702 18.5813 30.6404 18.211 30.6404 17.7542C30.6404 17.2975 30.2702 16.9272 29.8134 16.9272C29.3566 16.9272 28.9863 17.2975 28.9863 17.7542C28.9863 18.211 29.3566 18.5813 29.8134 18.5813Z" fill="black"/>
<path d="M48.4052 18.5813C48.862 18.5813 49.2322 18.211 49.2322 17.7542C49.2322 17.2975 48.862 16.9272 48.4052 16.9272C47.9484 16.9272 47.5781 17.2975 47.5781 17.7542C47.5781 18.211 47.9484 18.5813 48.4052 18.5813Z" fill="black"/>
<path d="M33.6566 14.1483C33.6566 14.1483 33.6471 14.1246 33.633 14.0868C33.6141 14.049 33.6093 13.9781 33.5573 13.9167C33.5148 13.8505 33.4723 13.7796 33.3967 13.6993C33.3352 13.6142 33.236 13.5433 33.1415 13.4535C33.0328 13.3779 32.9288 13.2881 32.7964 13.2078C32.6736 13.1227 32.5318 13.0518 32.39 12.9762C32.2482 12.9006 32.0875 12.8392 31.9316 12.7683C31.7709 12.7068 31.6102 12.6407 31.4401 12.5981C31.1093 12.4847 30.7643 12.428 30.4429 12.3713C30.2775 12.3618 30.1215 12.3335 29.9703 12.3287C29.819 12.3287 29.6725 12.3146 29.5402 12.3146C29.2756 12.324 29.044 12.3287 28.888 12.3524C28.7273 12.3666 28.6328 12.3713 28.6328 12.3713C28.6328 12.3713 28.7132 12.3287 28.8644 12.2626C29.0109 12.187 29.233 12.1114 29.5119 12.0452C29.7907 11.9837 30.1215 11.9459 30.4807 11.9554C30.6556 11.9696 30.8446 11.9743 31.0289 12.0121C31.2132 12.0499 31.4023 12.083 31.5819 12.1444C31.7662 12.1964 31.941 12.272 32.1159 12.3477C32.286 12.4233 32.4467 12.5178 32.6027 12.6123C32.7539 12.7068 32.8957 12.8155 33.0186 12.9242C33.1462 13.0235 33.2454 13.1511 33.3447 13.2598C33.4297 13.3779 33.5101 13.4819 33.5573 13.5953C33.6141 13.6946 33.6424 13.8033 33.6613 13.8883C33.6897 13.9687 33.6613 14.0348 33.6708 14.0774C33.6708 14.1199 33.6708 14.1435 33.6708 14.1435L33.6566 14.1483Z" fill="black"/>
<path d="M44.5731 14.1483C44.5731 14.1483 44.5731 14.1246 44.5731 14.0821C44.5779 14.0396 44.5542 13.9734 44.5826 13.8931C44.6015 13.808 44.6251 13.6993 44.6866 13.6001C44.7338 13.4866 44.8142 13.3827 44.8992 13.2645C44.9937 13.1605 45.093 13.0282 45.2253 12.929C45.3482 12.8155 45.4853 12.7116 45.6412 12.617C45.7924 12.5225 45.9531 12.428 46.128 12.3524C46.3029 12.2768 46.4777 12.2011 46.662 12.1492C46.8416 12.0877 47.0307 12.0546 47.215 12.0168C47.3993 11.979 47.5883 11.9743 47.7632 11.9601C48.1224 11.9507 48.4532 11.9885 48.732 12.0499C49.0061 12.1161 49.2283 12.1917 49.3748 12.2673C49.5213 12.3335 49.6064 12.376 49.6064 12.376C49.6064 12.376 49.5118 12.3666 49.3511 12.3571C49.1952 12.3335 48.9636 12.3288 48.699 12.3193C48.5666 12.3193 48.4201 12.3335 48.2689 12.3335C48.1177 12.3382 47.9617 12.3666 47.7963 12.376C47.4749 12.4327 47.1299 12.4894 46.7991 12.6029C46.629 12.6454 46.4683 12.7116 46.3076 12.773C46.1516 12.8392 45.9909 12.9053 45.8492 12.9809C45.7074 13.0566 45.5656 13.1322 45.4427 13.2125C45.3104 13.2881 45.2064 13.3779 45.0977 13.4583C45.0032 13.5481 44.9039 13.619 44.8425 13.704C44.7669 13.7844 44.7196 13.8553 44.6818 13.9214C44.6346 13.9829 44.6251 14.0538 44.6062 14.0916C44.592 14.1341 44.5826 14.153 44.5826 14.153L44.5731 14.1483Z" fill="black"/>
<path d="M46.2982 10.6226C45.7358 10.6226 45.2773 10.1642 45.2773 9.60182C45.2773 9.03942 45.7358 8.58099 46.2982 8.58099C46.8606 8.58099 47.319 9.03942 47.319 9.60182C47.319 10.1642 46.8606 10.6226 46.2982 10.6226ZM46.2982 9.04887C45.9957 9.04887 45.7499 9.29462 45.7499 9.59709C45.7499 9.89956 45.9957 10.1453 46.2982 10.1453C46.6006 10.1453 46.8464 9.89956 46.8464 9.59709C46.8464 9.29462 46.6006 9.04887 46.2982 9.04887Z" fill="black"/>
<path d="M48.4062 11.0953C48.0139 11.0953 47.6973 10.7786 47.6973 10.3863C47.6973 9.99409 48.0139 9.67744 48.4062 9.67744C48.7984 9.67744 49.1151 9.99409 49.1151 10.3863C49.1151 10.7786 48.7984 11.0953 48.4062 11.0953ZM48.4062 10.1548C48.2786 10.1548 48.1699 10.2587 48.1699 10.3911C48.1699 10.5234 48.2738 10.6274 48.4062 10.6274C48.5385 10.6274 48.6425 10.5234 48.6425 10.3911C48.6425 10.2587 48.5385 10.1548 48.4062 10.1548Z" fill="black"/>
<path d="M25.4794 9.616L27.6864 10.8589L25.1816 10.5139L25.4794 9.616Z" fill="black"/>
</svg>
