<svg width="104" height="32" viewBox="0 0 104 32" fill="none" xmlns="http://www.w3.org/2000/svg">
<path d="M28.3721 2.66667C28.9026 2.66667 29.3327 3.09674 29.3327 3.62726V28.3725C29.3327 28.903 28.9026 29.3331 28.3721 29.3331H3.6266C3.09609 29.3331 2.66602 28.903 2.66602 28.3725V3.62726C2.66602 3.37246 2.76725 3.12809 2.94745 2.94794C3.12764 2.76778 3.37204 2.66667 3.62684 2.66667H28.3721ZM26.4503 4.58889H5.54883C5.01831 4.58889 4.58824 5.01896 4.58824 5.54948V26.451C4.58824 26.9815 5.01831 27.4116 5.54883 27.4116H26.4503C26.7051 27.4116 26.9494 27.3104 27.1295 27.1302C27.3097 26.9501 27.4109 26.7057 27.4109 26.451V5.54948C27.4109 5.29472 27.3097 5.05039 27.1295 4.87025C26.9494 4.6901 26.7051 4.58889 26.4503 4.58889ZM24.9357 17.5167C25.4662 17.5167 25.8963 17.9467 25.8963 18.4773V24.3893C25.8963 24.9198 25.4662 25.3499 24.9357 25.3499L24.8375 25.3449C24.3531 25.2957 23.9751 24.8867 23.9751 24.3893V20.3991C23.9751 19.8685 23.5451 19.4385 23.0145 19.4385H20.7439C20.2133 19.4385 19.7833 19.8685 19.7833 20.3991V24.3895C19.7833 24.9201 19.3532 25.3501 18.8227 25.3501L18.7141 25.3441C18.4991 25.3197 18.2973 25.2233 18.1427 25.0687C17.9625 24.8883 17.8613 24.6437 17.8615 24.3887V20.3985C17.8615 19.8679 17.4314 19.4379 16.9009 19.4379H7.17582C6.64529 19.4379 6.21522 19.0078 6.21522 18.4773L6.22018 18.3791C6.26938 17.8947 6.67848 17.5167 7.17582 17.5167H24.9357ZM24.2575 6.96881C24.5124 6.96881 24.7568 7.07014 24.937 7.25041L25.0093 7.33141C25.1441 7.50061 25.2186 7.71141 25.2186 7.92987C25.2186 8.18481 25.1173 8.4292 24.937 8.60934L23.6451 9.90127C23.4648 10.0815 23.3635 10.3259 23.3635 10.5807C23.3635 10.8355 23.4648 11.08 23.6451 11.2601L24.937 12.5521C25.1173 12.7322 25.2186 12.9766 25.2186 13.2315C25.2186 13.4863 25.1173 13.7307 24.937 13.9109L24.856 13.9833C24.6868 14.1181 24.476 14.1925 24.2575 14.1925C24.0027 14.1925 23.7582 14.0912 23.5781 13.9109L22.2862 12.6191C22.1061 12.4388 21.8616 12.3375 21.6067 12.3375C21.3519 12.3375 21.1075 12.4388 20.9273 12.6191L19.6355 13.9109C19.2603 14.2859 18.6521 14.2857 18.2771 13.9105L18.2047 13.8295C18.07 13.6603 17.9955 13.4496 17.9955 13.2311C17.9955 12.9763 18.0969 12.7319 18.2771 12.5517L19.569 11.2598C19.7493 11.0796 19.8505 10.8352 19.8505 10.5803C19.8505 10.3255 19.7493 10.0811 19.569 9.90094L18.2765 8.60901C18.0962 8.42887 17.9949 8.18441 17.9949 7.92954C17.9949 7.67467 18.0962 7.43027 18.2765 7.25007L18.3575 7.17774C18.5267 7.04294 18.7375 6.96847 18.956 6.96847C19.2109 6.96847 19.4553 7.06981 19.6355 7.25007L20.9273 8.54201C21.1075 8.72227 21.3519 8.82361 21.6067 8.82361C21.8616 8.82361 22.1061 8.72227 22.2862 8.54201L23.5781 7.25041C23.7582 7.07014 24.0027 6.96881 24.2575 6.96881ZM13.1441 6.96887C13.399 6.96887 13.6434 7.07014 13.8235 7.25041L13.8959 7.33141C14.0307 7.50061 14.1051 7.71141 14.1051 7.92987C14.1051 8.18481 14.0038 8.4292 13.8235 8.60934L12.5317 9.90127C12.3515 10.0815 12.2502 10.3259 12.2502 10.5807C12.2502 10.8355 12.3515 11.08 12.5317 11.2601L13.8235 12.5521C14.0038 12.7322 14.1051 12.9766 14.1051 13.2315C14.1051 13.4863 14.0038 13.7307 13.8235 13.9109L13.7425 13.9833C13.5733 14.118 13.3626 14.1924 13.1441 14.1924C12.8893 14.1924 12.6449 14.0911 12.4647 13.9109L11.1728 12.6191C10.9926 12.4388 10.7482 12.3375 10.4933 12.3375C10.2385 12.3375 9.99415 12.4388 9.81395 12.6191L8.52202 13.9109C8.34182 14.0911 8.09742 14.1923 7.84255 14.1923C7.58768 14.1922 7.34328 14.0909 7.16322 13.9105L7.09082 13.8295C6.95608 13.6603 6.88162 13.4496 6.88162 13.2311C6.88162 12.9763 6.98295 12.7319 7.16322 12.5517L8.45502 11.2598C8.63528 11.0796 8.73655 10.8352 8.73655 10.5803C8.73655 10.3255 8.63528 10.0811 8.45502 9.90094L7.16322 8.60901C6.98288 8.42887 6.88162 8.18441 6.88162 7.92954C6.88162 7.67467 6.98288 7.43027 7.16322 7.25007L7.24422 7.17774C7.41342 7.04294 7.62415 6.96854 7.84262 6.96854C8.09748 6.96854 8.34188 7.06981 8.52202 7.25007L9.81395 8.54201C9.99415 8.72227 10.2385 8.82354 10.4933 8.82354C10.7482 8.82354 10.9926 8.72227 11.1728 8.54201L12.4647 7.25041C12.6449 7.07014 12.8893 6.96887 13.1441 6.96887Z" fill="#434054"/>
<path d="M43.7281 15.5067H49.1041V17.5867H43.7281V15.5067ZM43.9201 21.6667H41.3281V10.4667H49.7921V12.5467H43.9201V21.6667ZM51.5469 21.6667V10.4667H57.0189C58.4269 10.4667 59.4829 10.7333 60.1869 11.2667C60.9015 11.8 61.2589 12.504 61.2589 13.3787C61.2589 13.9653 61.1149 14.4773 60.8269 14.9147C60.5389 15.3413 60.1442 15.672 59.6429 15.9067C59.1415 16.1413 58.5655 16.2587 57.9149 16.2587L58.2189 15.6027C58.9229 15.6027 59.5469 15.72 60.0909 15.9547C60.6349 16.1787 61.0562 16.5147 61.3549 16.9627C61.6642 17.4107 61.8189 17.96 61.8189 18.6107C61.8189 19.5707 61.4402 20.3227 60.6829 20.8667C59.9255 21.4 58.8109 21.6667 57.3389 21.6667H51.5469ZM54.1229 19.7147H57.1469C57.8189 19.7147 58.3255 19.608 58.6669 19.3947C59.0189 19.1707 59.1949 18.8187 59.1949 18.3387C59.1949 17.8693 59.0189 17.5227 58.6669 17.2987C58.3255 17.064 57.8189 16.9467 57.1469 16.9467H53.9309V15.0587H56.6989C57.3282 15.0587 57.8082 14.952 58.1389 14.7387C58.4802 14.5147 58.6509 14.1787 58.6509 13.7307C58.6509 13.2933 58.4802 12.968 58.1389 12.7547C57.8082 12.5307 57.3282 12.4187 56.6989 12.4187H54.1229V19.7147ZM63.2853 18.1627V16.1627H67.8135V18.1627H63.2853ZM71.8415 19.9067L71.9055 16.8667L75.9215 13.0587H78.8975L75.0415 16.9787L73.7455 18.0347L71.8415 19.9067ZM69.7775 21.6667V9.79466H72.2735V21.6667H69.7775ZM76.1935 21.6667L73.2815 18.0507L74.8495 16.1147L79.2175 21.6667H76.1935ZM80.3395 21.6667V13.0587H82.8355V21.6667H80.3395ZM81.5875 11.8587C81.1288 11.8587 80.7555 11.7253 80.4675 11.4587C80.1795 11.192 80.0355 10.8613 80.0355 10.4667C80.0355 10.072 80.1795 9.74133 80.4675 9.47466C80.7555 9.20799 81.1288 9.07466 81.5875 9.07466C82.0461 9.07466 82.4195 9.20266 82.7075 9.45866C82.9955 9.70399 83.1395 10.024 83.1395 10.4187C83.1395 10.8347 82.9955 11.1813 82.7075 11.4587C82.4301 11.7253 82.0568 11.8587 81.5875 11.8587ZM85.1521 21.6667V9.79466H87.6481V21.6667H85.1521ZM89.9648 21.6667V9.79466H92.4608V21.6667H89.9648ZM100.057 21.6667V19.9867L99.8974 19.6187V16.6107C99.8974 16.0773 99.7321 15.6613 99.4015 15.3627C99.0815 15.064 98.5854 14.9147 97.9134 14.9147C97.4548 14.9147 97.0015 14.9893 96.5535 15.1387C96.1161 15.2773 95.7428 15.4693 95.4334 15.7147L94.5375 13.9707C95.0068 13.64 95.5721 13.384 96.2335 13.2027C96.8948 13.0213 97.5668 12.9307 98.2494 12.9307C99.5614 12.9307 100.58 13.24 101.305 13.8587C102.031 14.4773 102.393 15.4427 102.393 16.7547V21.6667H100.057ZM97.4334 21.7947C96.7614 21.7947 96.1855 21.6827 95.7055 21.4587C95.2255 21.224 94.8574 20.9093 94.6014 20.5147C94.3454 20.12 94.2175 19.6773 94.2175 19.1867C94.2175 18.6747 94.3401 18.2267 94.5855 17.8427C94.8415 17.4587 95.2414 17.16 95.7854 16.9467C96.3294 16.7227 97.0388 16.6107 97.9134 16.6107H100.201V18.0667H98.1855C97.5988 18.0667 97.1934 18.1627 96.9694 18.3547C96.7561 18.5467 96.6495 18.7867 96.6495 19.0747C96.6495 19.3947 96.7721 19.6507 97.0175 19.8427C97.2735 20.024 97.6201 20.1147 98.0575 20.1147C98.4735 20.1147 98.8468 20.0187 99.1775 19.8267C99.5081 19.624 99.7481 19.3307 99.8974 18.9467L100.281 20.0987C100.1 20.6533 99.7695 21.0747 99.2895 21.3627C98.8095 21.6507 98.1908 21.7947 97.4334 21.7947Z" fill="#444250"/>
</svg>
