<svg width="104" height="38" viewBox="0 0 104 38" fill="none" xmlns="http://www.w3.org/2000/svg">
<path d="M28.3721 5.66667C28.9026 5.66667 29.3327 6.09674 29.3327 6.62726V31.3725C29.3327 31.903 28.9026 32.3331 28.3721 32.3331H3.6266C3.09609 32.3331 2.66602 31.903 2.66602 31.3725V6.62726C2.66602 6.37246 2.76725 6.12809 2.94745 5.94794C3.12764 5.76778 3.37204 5.66667 3.62684 5.66667H28.3721ZM26.4503 7.58889H5.54883C5.01831 7.58889 4.58824 8.01896 4.58824 8.54948V29.451C4.58824 29.9815 5.01831 30.4116 5.54883 30.4116H26.4503C26.7051 30.4116 26.9494 30.3104 27.1295 30.1302C27.3097 29.9501 27.4109 29.7057 27.4109 29.451V8.54948C27.4109 8.29472 27.3097 8.05039 27.1295 7.87025C26.9494 7.6901 26.7051 7.58889 26.4503 7.58889ZM24.9357 20.5167C25.4662 20.5167 25.8963 20.9467 25.8963 21.4773V27.3893C25.8963 27.9198 25.4662 28.3499 24.9357 28.3499L24.8375 28.3449C24.3531 28.2957 23.9751 27.8867 23.9751 27.3893V23.3991C23.9751 22.8685 23.5451 22.4385 23.0145 22.4385H20.7439C20.2133 22.4385 19.7833 22.8685 19.7833 23.3991V27.3895C19.7833 27.9201 19.3532 28.3501 18.8227 28.3501L18.7141 28.3441C18.4991 28.3197 18.2973 28.2233 18.1427 28.0687C17.9625 27.8883 17.8613 27.6437 17.8615 27.3887V23.3985C17.8615 22.8679 17.4314 22.4379 16.9009 22.4379H7.17582C6.64529 22.4379 6.21522 22.0078 6.21522 21.4773L6.22018 21.3791C6.26938 20.8947 6.67848 20.5167 7.17582 20.5167H24.9357ZM24.2575 9.96881C24.5124 9.96881 24.7568 10.0701 24.937 10.2504L25.0093 10.3314C25.1441 10.5006 25.2186 10.7114 25.2186 10.9299C25.2186 11.1848 25.1173 11.4292 24.937 11.6093L23.6451 12.9013C23.4648 13.0815 23.3635 13.3259 23.3635 13.5807C23.3635 13.8355 23.4648 14.08 23.6451 14.2601L24.937 15.5521C25.1173 15.7322 25.2186 15.9766 25.2186 16.2315C25.2186 16.4863 25.1173 16.7307 24.937 16.9109L24.856 16.9833C24.6868 17.1181 24.476 17.1925 24.2575 17.1925C24.0027 17.1925 23.7582 17.0912 23.5781 16.9109L22.2862 15.6191C22.1061 15.4388 21.8616 15.3375 21.6067 15.3375C21.3519 15.3375 21.1075 15.4388 20.9273 15.6191L19.6355 16.9109C19.2603 17.2859 18.6521 17.2857 18.2771 16.9105L18.2047 16.8295C18.07 16.6603 17.9955 16.4496 17.9955 16.2311C17.9955 15.9763 18.0969 15.7319 18.2771 15.5517L19.569 14.2598C19.7493 14.0796 19.8505 13.8352 19.8505 13.5803C19.8505 13.3255 19.7493 13.0811 19.569 12.9009L18.2765 11.609C18.0962 11.4289 17.9949 11.1844 17.9949 10.9295C17.9949 10.6747 18.0962 10.4303 18.2765 10.2501L18.3575 10.1777C18.5267 10.0429 18.7375 9.96847 18.956 9.96847C19.2109 9.96847 19.4553 10.0698 19.6355 10.2501L20.9273 11.542C21.1075 11.7223 21.3519 11.8236 21.6067 11.8236C21.8616 11.8236 22.1061 11.7223 22.2862 11.542L23.5781 10.2504C23.7582 10.0701 24.0027 9.96881 24.2575 9.96881ZM13.1441 9.96887C13.399 9.96887 13.6434 10.0701 13.8235 10.2504L13.8959 10.3314C14.0307 10.5006 14.1051 10.7114 14.1051 10.9299C14.1051 11.1848 14.0038 11.4292 13.8235 11.6093L12.5317 12.9013C12.3515 13.0815 12.2502 13.3259 12.2502 13.5807C12.2502 13.8355 12.3515 14.08 12.5317 14.2601L13.8235 15.5521C14.0038 15.7322 14.1051 15.9766 14.1051 16.2315C14.1051 16.4863 14.0038 16.7307 13.8235 16.9109L13.7425 16.9833C13.5733 17.118 13.3626 17.1924 13.1441 17.1924C12.8893 17.1924 12.6449 17.0911 12.4647 16.9109L11.1728 15.6191C10.9926 15.4388 10.7482 15.3375 10.4933 15.3375C10.2385 15.3375 9.99415 15.4388 9.81395 15.6191L8.52202 16.9109C8.34182 17.0911 8.09742 17.1923 7.84255 17.1923C7.58768 17.1922 7.34328 17.0909 7.16322 16.9105L7.09082 16.8295C6.95608 16.6603 6.88162 16.4496 6.88162 16.2311C6.88162 15.9763 6.98295 15.7319 7.16322 15.5517L8.45502 14.2598C8.63528 14.0796 8.73655 13.8352 8.73655 13.5803C8.73655 13.3255 8.63528 13.0811 8.45502 12.9009L7.16322 11.609C6.98288 11.4289 6.88162 11.1844 6.88162 10.9295C6.88162 10.6747 6.98288 10.4303 7.16322 10.2501L7.24422 10.1777C7.41342 10.0429 7.62415 9.96854 7.84262 9.96854C8.09748 9.96854 8.34188 10.0698 8.52202 10.2501L9.81395 11.542C9.99415 11.7223 10.2385 11.8235 10.4933 11.8235C10.7482 11.8235 10.9926 11.7223 11.1728 11.542L12.4647 10.2504C12.6449 10.0701 12.8893 9.96887 13.1441 9.96887Z" fill="#434054"/>
<path d="M43.7281 18.5067H49.1041V20.5867H43.7281V18.5067ZM43.9201 24.6667H41.3281V13.4667H49.7921V15.5467H43.9201V24.6667ZM51.5469 24.6667V13.4667H57.0189C58.4269 13.4667 59.4829 13.7333 60.1869 14.2667C60.9015 14.8 61.2589 15.504 61.2589 16.3787C61.2589 16.9653 61.1149 17.4773 60.8269 17.9147C60.5389 18.3413 60.1442 18.672 59.6429 18.9067C59.1415 19.1413 58.5655 19.2587 57.9149 19.2587L58.2189 18.6027C58.9229 18.6027 59.5469 18.72 60.0909 18.9547C60.6349 19.1787 61.0562 19.5147 61.3549 19.9627C61.6642 20.4107 61.8189 20.96 61.8189 21.6107C61.8189 22.5707 61.4402 23.3227 60.6829 23.8667C59.9255 24.4 58.8109 24.6667 57.3389 24.6667H51.5469ZM54.1229 22.7147H57.1469C57.8189 22.7147 58.3255 22.608 58.6669 22.3947C59.0189 22.1707 59.1949 21.8187 59.1949 21.3387C59.1949 20.8693 59.0189 20.5227 58.6669 20.2987C58.3255 20.064 57.8189 19.9467 57.1469 19.9467H53.9309V18.0587H56.6989C57.3282 18.0587 57.8082 17.952 58.1389 17.7387C58.4802 17.5147 58.6509 17.1787 58.6509 16.7307C58.6509 16.2933 58.4802 15.968 58.1389 15.7547C57.8082 15.5307 57.3282 15.4187 56.6989 15.4187H54.1229V22.7147ZM63.2853 21.1627V19.1627H67.8135V21.1627H63.2853ZM71.8415 22.9067L71.9055 19.8667L75.9215 16.0587H78.8975L75.0415 19.9787L73.7455 21.0347L71.8415 22.9067ZM69.7775 24.6667V12.7947H72.2735V24.6667H69.7775ZM76.1935 24.6667L73.2815 21.0507L74.8495 19.1147L79.2175 24.6667H76.1935ZM80.3395 24.6667V16.0587H82.8355V24.6667H80.3395ZM81.5875 14.8587C81.1288 14.8587 80.7555 14.7253 80.4675 14.4587C80.1795 14.192 80.0355 13.8613 80.0355 13.4667C80.0355 13.072 80.1795 12.7413 80.4675 12.4747C80.7555 12.208 81.1288 12.0747 81.5875 12.0747C82.0461 12.0747 82.4195 12.2027 82.7075 12.4587C82.9955 12.704 83.1395 13.024 83.1395 13.4187C83.1395 13.8347 82.9955 14.1813 82.7075 14.4587C82.4301 14.7253 82.0568 14.8587 81.5875 14.8587ZM85.1521 24.6667V12.7947H87.6481V24.6667H85.1521ZM89.9648 24.6667V12.7947H92.4608V24.6667H89.9648ZM100.057 24.6667V22.9867L99.8974 22.6187V19.6107C99.8974 19.0773 99.7321 18.6613 99.4015 18.3627C99.0815 18.064 98.5854 17.9147 97.9134 17.9147C97.4548 17.9147 97.0015 17.9893 96.5535 18.1387C96.1161 18.2773 95.7428 18.4693 95.4334 18.7147L94.5375 16.9707C95.0068 16.64 95.5721 16.384 96.2335 16.2027C96.8948 16.0213 97.5668 15.9307 98.2494 15.9307C99.5614 15.9307 100.58 16.24 101.305 16.8587C102.031 17.4773 102.393 18.4427 102.393 19.7547V24.6667H100.057ZM97.4334 24.7947C96.7614 24.7947 96.1855 24.6827 95.7055 24.4587C95.2255 24.224 94.8574 23.9093 94.6014 23.5147C94.3454 23.12 94.2175 22.6773 94.2175 22.1867C94.2175 21.6747 94.3401 21.2267 94.5855 20.8427C94.8415 20.4587 95.2414 20.16 95.7854 19.9467C96.3294 19.7227 97.0388 19.6107 97.9134 19.6107H100.201V21.0667H98.1855C97.5988 21.0667 97.1934 21.1627 96.9694 21.3547C96.7561 21.5467 96.6495 21.7867 96.6495 22.0747C96.6495 22.3947 96.7721 22.6507 97.0175 22.8427C97.2735 23.024 97.6201 23.1147 98.0575 23.1147C98.4735 23.1147 98.8468 23.0187 99.1775 22.8267C99.5081 22.624 99.7481 22.3307 99.8974 21.9467L100.281 23.0987C100.1 23.6533 99.7695 24.0747 99.2895 24.3627C98.8095 24.6507 98.1908 24.7947 97.4334 24.7947Z" fill="#444250"/>
</svg>
