<svg width="75" height="32" viewBox="0 0 75 32" fill="none" xmlns="http://www.w3.org/2000/svg">
<path fill-rule="evenodd" clip-rule="evenodd" d="M12.5844 11.0911C10.7979 10.9621 9.07119 11.7642 8.0174 13.2126V4H2.90039V27.5717H8.0174V18.9484C8.0174 16.8858 9.19598 15.9037 10.6201 15.9037C12.1719 15.9037 13.1541 16.9546 13.1541 18.8501V27.5717H18.2711V17.043C18.2711 13.3305 15.7862 11.0911 12.5844 11.0911ZM32.9248 27.5717H37.8355V11.5331H32.9248V13.2617C31.8389 11.8311 30.123 11.0208 28.3283 11.0911C24.0265 11.0911 20.8541 14.7939 20.8541 19.5278C20.8541 24.2618 24.0265 27.994 28.3087 27.994C30.108 28.0715 31.8317 27.2646 32.9248 25.8332V27.5717ZM26.0497 19.5376C26.0497 20.7658 26.7049 21.9006 27.7685 22.5146C28.8321 23.1287 30.1424 23.1287 31.206 22.5146C32.2696 21.9006 32.9248 20.7658 32.9248 19.5376C32.9248 17.6392 31.3857 16.1001 29.4873 16.1001C27.5888 16.1001 26.0497 17.6392 26.0497 19.5376ZM50.8687 27.994C55.1509 27.994 58.3331 24.2618 58.3331 19.5278C58.3331 14.8037 55.1509 11.0911 50.8982 11.101C49.1958 11.0274 47.557 11.7542 46.4687 13.0653V4H41.3615V27.5717H46.2722V25.8529C47.3601 27.2778 49.078 28.078 50.8687 27.994ZM46.2231 19.5278C46.2231 21.4263 47.7622 22.9654 49.6607 22.9654C51.5592 22.9654 53.0982 21.4263 53.0982 19.5278C53.0982 17.6293 51.5592 16.0903 49.6607 16.0903C47.7622 16.0903 46.2231 17.6293 46.2231 19.5278ZM71.651 16.434L72.093 11.3367C71.5114 11.1723 70.9098 11.0896 70.3055 11.0911C68.5315 10.9708 66.8396 11.8546 65.9251 13.3795V11.5331H61.0143V27.5717H66.1412V18.8993C66.0407 18.0961 66.3211 17.2922 66.8992 16.7257C67.4772 16.1592 68.2867 15.8951 69.0876 16.0117C69.9584 16.0233 70.8225 16.1656 71.651 16.434Z" fill="white"/>
</svg>
