<svg width="75" height="38" viewBox="0 0 75 38" fill="none" xmlns="http://www.w3.org/2000/svg">
<path fill-rule="evenodd" clip-rule="evenodd" d="M12.5844 14.0911C10.7979 13.9621 9.07119 14.7642 8.0174 16.2126V7H2.90039V30.5717H8.0174V21.9484C8.0174 19.8858 9.19598 18.9037 10.6201 18.9037C12.1719 18.9037 13.1541 19.9546 13.1541 21.8501V30.5717H18.2711V20.043C18.2711 16.3305 15.7862 14.0911 12.5844 14.0911ZM32.9248 30.5717H37.8355V14.5331H32.9248V16.2617C31.8389 14.8311 30.123 14.0208 28.3283 14.0911C24.0265 14.0911 20.8541 17.7939 20.8541 22.5278C20.8541 27.2618 24.0265 30.994 28.3087 30.994C30.108 31.0715 31.8317 30.2646 32.9248 28.8332V30.5717ZM26.0497 22.5376C26.0497 23.7658 26.7049 24.9006 27.7685 25.5146C28.8321 26.1287 30.1424 26.1287 31.206 25.5146C32.2696 24.9006 32.9248 23.7658 32.9248 22.5376C32.9248 20.6392 31.3857 19.1001 29.4873 19.1001C27.5888 19.1001 26.0497 20.6392 26.0497 22.5376ZM50.8687 30.994C55.1509 30.994 58.3331 27.2618 58.3331 22.5278C58.3331 17.8037 55.1509 14.0911 50.8982 14.101C49.1958 14.0274 47.557 14.7542 46.4687 16.0653V7H41.3615V30.5717H46.2722V28.8529C47.3601 30.2778 49.078 31.078 50.8687 30.994ZM46.2231 22.5278C46.2231 24.4263 47.7622 25.9654 49.6607 25.9654C51.5592 25.9654 53.0982 24.4263 53.0982 22.5278C53.0982 20.6293 51.5592 19.0903 49.6607 19.0903C47.7622 19.0903 46.2231 20.6293 46.2231 22.5278ZM71.651 19.434L72.093 14.3367C71.5114 14.1723 70.9098 14.0896 70.3055 14.0911C68.5315 13.9708 66.8396 14.8546 65.9251 16.3795V14.5331H61.0143V30.5717H66.1412V21.8993C66.0407 21.0961 66.3211 20.2922 66.8992 19.7257C67.4772 19.1592 68.2867 18.8951 69.0876 19.0117C69.9584 19.0233 70.8225 19.1656 71.651 19.434Z" fill="white"/>
</svg>
